<?xml version="1.0" encoding="UTF-8"?><svg id="uuid-3ea1d72a-740a-4774-abe2-bcb170396221" xmlns="http://www.w3.org/2000/svg" width="2160" height="443" viewBox="0 0 2160 443"><path d="m366.75,235.67v-62.24l-52.4,29.37c7.07,12.58,12.33,26.31,15.45,40.83l36.95-7.97Z" style="fill:none; stroke-width:0px;"/><path d="m313.17,348.43l53.58,31.18v-65.73l-37.01-8.06c-3.3,15.22-8.95,29.56-16.56,42.61Z" style="fill:none; stroke-width:0px;"/><path d="m600.4,185.28c-3.07.5-6.1,1.15-9.06,1.95l9.06-1.95Z" style="fill:none; stroke-width:0px;"/><path d="m274.75,293.85c-2.03,9.38-5.52,18.23-10.22,26.28l48.64,28.3c7.61-13.06,13.27-27.39,16.56-42.61l-54.99-11.97Z" style="fill:#679bde; stroke-width:0px;"/><path d="m329.8,243.64c-3.12-14.53-8.38-28.25-15.45-40.83l-49.09,27.51c4.36,7.76,7.61,16.22,9.53,25.18l55.01-11.86Z" style="fill:#679bde; stroke-width:0px;"/><path d="m186.28,365.12c-50,0-90.53-40.53-90.53-90.53s40.53-90.53,90.53-90.53c24.74,0,47.16,9.93,63.5,26.02l39.47-40.1c-26.5-26.09-62.85-42.19-102.97-42.19-81.07,0-146.79,65.72-146.79,146.79s65.72,146.79,146.79,146.79c39.45,0,75.25-15.56,101.63-40.88l-38.95-40.6c-16.27,15.61-38.35,25.21-62.68,25.21Z" style="fill:#004ebc; stroke-width:0px;"/><path d="m615.15,421.39c35.28,0,67.66-12.45,92.97-33.2l-224.78-48.93c23.91,48.64,73.95,82.13,131.81,82.13Z" style="fill:#679bde; stroke-width:0px;"/><path d="m600.4,185.28l108.72-23.45c-25.46-21.24-58.23-34.03-93.98-34.03-58.13,0-108.37,33.79-132.14,82.8l108.34-23.37c2.96-.81,5.99-1.45,9.06-1.95Z" style="fill:#679bde; stroke-width:0px;"/><polygon points="366.75 379.61 427.88 415.18 427.89 415.18 427.89 327.19 366.75 313.88 366.75 379.61" style="fill:#679bde; stroke-width:0px;"/><polygon points="366.75 235.67 427.89 222.48 427.89 139.16 366.75 173.43 366.75 235.67" style="fill:#679bde; stroke-width:0px;"/><path d="m397.32,21.61c-19.9,0-36.03,16.13-36.03,36.03,0,10.7,4.67,20.3,12.07,26.9l50.49-51.29c-6.59-7.16-16.03-11.65-26.52-11.65Z" style="fill:#004ebc; stroke-width:0px;"/><path d="m313.17,348.43l-48.64-28.3c-4.26,7.31-9.51,13.96-15.58,19.78l38.95,40.6c9.83-9.44,18.35-20.23,25.26-32.08Z" style="fill:#0072cf; stroke-width:0px;"/><polygon points="366.75 415.18 427.88 415.18 366.75 379.61 366.75 415.18" style="fill:#0072cf; stroke-width:0px;"/><path d="m265.26,230.32l49.09-27.51c-6.8-12.11-15.27-23.15-25.09-32.82l-39.47,40.1c6.06,5.96,11.28,12.78,15.47,20.24Z" style="fill:#0072cf; stroke-width:0px;"/><polygon points="366.75 137.4 366.75 173.43 427.89 139.16 427.89 137.4 366.75 137.4" style="fill:#0072cf; stroke-width:0px;"/><path d="m433.35,57.65c0-9.41-3.61-17.97-9.51-24.39l-50.49,51.29c6.37,5.68,14.76,9.13,23.96,9.13,19.9,0,36.03-16.13,36.03-36.03Z" style="fill:#0072cf; stroke-width:0px;"/><path d="m709.13,161.83l-108.72,23.45c4.8-.79,9.72-1.21,14.75-1.21,43.51,0,79.85,30.7,88.55,71.63h-177.09c7.05-33.17,32.26-59.63,64.74-68.46l-108.34,23.37c-9.38,19.34-14.65,41.05-14.65,63.99,0,12.62,1.59,24.87,4.59,36.56,2.51,9.8,6.02,19.2,10.39,28.1l224.78,48.93c14.35-11.76,26.43-26.18,35.48-42.52,11.68-21.06,18.34-45.29,18.34-71.08,0-45.32-20.54-85.84-52.82-112.76Zm-93.98,203.29c-33.76,0-63.18-18.48-78.75-45.87-4.6-8.09-8-16.95-9.93-26.34h177.35c-3.53,17.17-11.93,32.55-23.68,44.68-16.45,16.98-39.49,27.54-65,27.54Z" style="fill:#a1bdea; stroke-width:0px;"/><polygon points="366.75 235.67 366.75 274.59 366.75 297.61 366.75 313.88 427.89 327.19 427.89 305.41 427.89 274.59 427.89 222.48 366.75 235.67" style="fill:#a1bdea; stroke-width:0px;"/><path d="m876.31,220.29v-47.13h4.65v47.13h-4.65Z" style="stroke-width:0px;"/><path d="m920.58,220.29h-4.51v-19.19c0-4.04-.6-7-1.79-8.87-1.19-1.87-3.08-2.8-5.64-2.8-1.77,0-3.52.43-5.24,1.28-1.73.86-3.24,2.02-4.55,3.49-1.31,1.47-2.25,3.15-2.82,5.04v21.05h-4.51v-34.45h4.12v7.85c.93-1.67,2.15-3.13,3.65-4.39,1.5-1.25,3.21-2.23,5.11-2.94,1.9-.7,3.87-1.06,5.91-1.06,1.9,0,3.52.35,4.85,1.06,1.33.7,2.39,1.71,3.19,3,.8,1.3,1.37,2.86,1.73,4.69.35,1.83.53,3.86.53,6.1v20.13Z" style="stroke-width:0px;"/><path d="m946.14,218.89c-.36.13-.91.38-1.66.73-.75.35-1.66.66-2.72.93-1.06.27-2.21.4-3.45.4s-2.49-.24-3.62-.73c-1.13-.49-2.02-1.23-2.69-2.23-.66-1-1-2.23-1-3.7v-24.86h-4.78v-3.58h4.78v-11.68h4.51v11.68h7.97v3.58h-7.97v23.61c.09,1.24.54,2.18,1.36,2.8.82.62,1.76.93,2.82.93,1.24,0,2.37-.21,3.39-.63,1.02-.42,1.64-.72,1.86-.9l1.2,3.65Z" style="stroke-width:0px;"/><path d="m965.52,220.95c-2.48,0-4.78-.47-6.9-1.42-2.12-.95-3.96-2.25-5.51-3.9-1.55-1.65-2.75-3.56-3.62-5.72-.86-2.16-1.29-4.48-1.29-6.94,0-3.21.74-6.15,2.22-8.83,1.48-2.68,3.53-4.82,6.14-6.42,2.61-1.6,5.58-2.41,8.89-2.41s6.38.81,8.93,2.44c2.54,1.63,4.55,3.77,6.01,6.43,1.46,2.66,2.19,5.57,2.19,8.74v1.02c0,.33-.02.58-.07.76h-29.6c.22,2.47.92,4.66,2.09,6.57,1.17,1.91,2.7,3.43,4.58,4.56,1.88,1.12,3.93,1.68,6.14,1.68s4.39-.57,6.41-1.73c2.01-1.15,3.42-2.66,4.21-4.51l3.92,1.06c-.71,1.64-1.79,3.12-3.25,4.45-1.46,1.33-3.18,2.36-5.14,3.09-1.97.73-4.08,1.1-6.34,1.1Zm-12.74-19.52h25.56c-.18-2.5-.85-4.68-2.02-6.57-1.17-1.88-2.7-3.36-4.58-4.43-1.88-1.07-3.95-1.61-6.21-1.61s-4.31.54-6.17,1.61c-1.86,1.07-3.38,2.56-4.55,4.47-1.17,1.91-1.85,4.08-2.02,6.54Z" style="stroke-width:0px;"/><path d="m1006.48,189.69c-3.01.09-5.65.93-7.93,2.52-2.28,1.59-3.88,3.78-4.81,6.57v21.51h-4.51v-34.45h4.25v8.16c1.19-2.43,2.78-4.4,4.75-5.91,1.97-1.5,4.06-2.35,6.27-2.52.44-.04.83-.07,1.16-.07s.61.02.83.07v4.12Z" style="stroke-width:0px;"/><path d="m1041.26,220.29h-4.51v-19.19c0-4.04-.6-7-1.79-8.87-1.19-1.87-3.08-2.8-5.64-2.8-1.77,0-3.52.43-5.24,1.28-1.73.86-3.24,2.02-4.55,3.49-1.31,1.47-2.25,3.15-2.82,5.04v21.05h-4.51v-34.45h4.12v7.85c.93-1.67,2.15-3.13,3.65-4.39,1.5-1.25,3.21-2.23,5.11-2.94,1.9-.7,3.87-1.06,5.91-1.06,1.9,0,3.52.35,4.85,1.06,1.33.7,2.39,1.71,3.19,3,.8,1.3,1.37,2.86,1.73,4.69.35,1.83.53,3.86.53,6.1v20.13Z" style="stroke-width:0px;"/><path d="m1047.77,210.4c0-2.15.62-4.01,1.86-5.57,1.24-1.56,2.95-2.77,5.14-3.63,2.19-.86,4.72-1.29,7.6-1.29,1.68,0,3.43.13,5.24.4s3.43.66,4.85,1.19v-2.91c0-2.9-.86-5.21-2.59-6.93-1.73-1.72-4.12-2.57-7.17-2.57-1.86,0-3.68.34-5.48,1.03-1.79.69-3.66,1.69-5.61,3.02l-1.73-3.19c2.26-1.55,4.47-2.71,6.64-3.48,2.17-.77,4.38-1.16,6.64-1.16,4.25,0,7.61,1.21,10.09,3.63,2.48,2.42,3.72,5.76,3.72,10.03v15.9c0,.62.13,1.07.4,1.35.27.29.69.45,1.26.49v3.58c-.49.04-.91.09-1.26.13-.35.04-.62.04-.8,0-1.11-.04-1.95-.4-2.52-1.06-.58-.66-.89-1.37-.93-2.12l-.07-2.52c-1.55,1.99-3.56,3.53-6.04,4.61-2.48,1.08-5,1.63-7.57,1.63-2.21,0-4.21-.47-6.01-1.42-1.79-.95-3.19-2.22-4.18-3.83-1-1.6-1.49-3.38-1.49-5.31Zm23.17,2.63c.49-.61.86-1.21,1.13-1.78.26-.57.4-1.07.4-1.51v-5c-1.5-.57-3.06-1.01-4.68-1.31s-3.24-.46-4.88-.46c-3.23,0-5.84.64-7.83,1.91s-2.99,3-2.99,5.2c0,1.27.33,2.47,1,3.59.66,1.12,1.64,2.04,2.92,2.76,1.28.72,2.79,1.08,4.51,1.08,2.17,0,4.19-.42,6.07-1.25,1.88-.83,3.33-1.91,4.35-3.22Z" style="stroke-width:0px;"/><path d="m1102.73,218.89c-.36.13-.91.38-1.66.73-.75.35-1.66.66-2.72.93-1.06.27-2.21.4-3.45.4s-2.49-.24-3.62-.73c-1.13-.49-2.02-1.23-2.69-2.23-.66-1-1-2.23-1-3.7v-24.86h-4.78v-3.58h4.78v-11.68h4.51v11.68h7.97v3.58h-7.97v23.61c.09,1.24.54,2.18,1.36,2.8.82.62,1.76.93,2.82.93,1.24,0,2.37-.21,3.39-.63,1.02-.42,1.64-.72,1.86-.9l1.2,3.65Z" style="stroke-width:0px;"/><path d="m1108.04,178.47v-6.64h4.51v6.64h-4.51Zm0,41.82v-34.58h4.51v34.58h-4.51Z" style="stroke-width:0px;"/><path d="m1136.98,220.95c-2.52,0-4.83-.47-6.94-1.42-2.1-.95-3.92-2.24-5.44-3.89-1.53-1.65-2.71-3.54-3.55-5.68-.84-2.13-1.26-4.39-1.26-6.77s.42-4.76,1.26-6.9c.84-2.13,2.04-4.03,3.58-5.68,1.55-1.65,3.37-2.95,5.48-3.89s4.39-1.42,6.87-1.42,4.76.47,6.84,1.42c2.08.95,3.89,2.24,5.44,3.89,1.55,1.65,2.74,3.54,3.58,5.68.84,2.13,1.26,4.43,1.26,6.9s-.42,4.63-1.26,6.77c-.84,2.13-2.03,4.03-3.55,5.68-1.53,1.65-3.34,2.95-5.44,3.89-2.1.94-4.39,1.42-6.87,1.42Zm-12.61-17.69c0,2.55.56,4.87,1.69,6.95,1.13,2.09,2.64,3.73,4.55,4.94,1.9,1.21,4,1.81,6.31,1.81s4.4-.62,6.31-1.85c1.9-1.23,3.43-2.91,4.58-5.04,1.15-2.13,1.73-4.47,1.73-7.02s-.58-4.81-1.73-6.92c-1.15-2.11-2.68-3.78-4.58-5.01-1.9-1.23-4.01-1.85-6.31-1.85s-4.4.64-6.31,1.91c-1.9,1.27-3.42,2.95-4.55,5.04-1.13,2.09-1.69,4.43-1.69,7.02Z" style="stroke-width:0px;"/><path d="m1190.41,220.29h-4.51v-19.19c0-4.04-.6-7-1.79-8.87-1.19-1.87-3.08-2.8-5.64-2.8-1.77,0-3.52.43-5.24,1.28-1.73.86-3.24,2.02-4.55,3.49-1.31,1.47-2.25,3.15-2.82,5.04v21.05h-4.51v-34.45h4.12v7.85c.93-1.67,2.15-3.13,3.65-4.39,1.5-1.25,3.21-2.23,5.11-2.94,1.9-.7,3.87-1.06,5.91-1.06,1.9,0,3.52.35,4.85,1.06,1.33.7,2.39,1.71,3.19,3,.8,1.3,1.37,2.86,1.73,4.69.35,1.83.53,3.86.53,6.1v20.13Z" style="stroke-width:0px;"/><path d="m1196.91,210.4c0-2.15.62-4.01,1.86-5.57,1.24-1.56,2.95-2.77,5.14-3.63,2.19-.86,4.72-1.29,7.6-1.29,1.68,0,3.43.13,5.24.4s3.43.66,4.85,1.19v-2.91c0-2.9-.86-5.21-2.59-6.93-1.73-1.72-4.12-2.57-7.17-2.57-1.86,0-3.68.34-5.48,1.03-1.79.69-3.66,1.69-5.61,3.02l-1.73-3.19c2.26-1.55,4.47-2.71,6.64-3.48,2.17-.77,4.38-1.16,6.64-1.16,4.25,0,7.61,1.21,10.09,3.63,2.48,2.42,3.72,5.76,3.72,10.03v15.9c0,.62.13,1.07.4,1.35.27.29.69.45,1.26.49v3.58c-.49.04-.91.09-1.26.13-.35.04-.62.04-.8,0-1.11-.04-1.95-.4-2.52-1.06-.58-.66-.89-1.37-.93-2.12l-.07-2.52c-1.55,1.99-3.56,3.53-6.04,4.61-2.48,1.08-5,1.63-7.57,1.63-2.21,0-4.21-.47-6.01-1.42-1.79-.95-3.19-2.22-4.18-3.83-1-1.6-1.49-3.38-1.49-5.31Zm23.17,2.63c.49-.61.86-1.21,1.13-1.78.26-.57.4-1.07.4-1.51v-5c-1.5-.57-3.06-1.01-4.68-1.31s-3.24-.46-4.88-.46c-3.23,0-5.84.64-7.83,1.91s-2.99,3-2.99,5.2c0,1.27.33,2.47,1,3.59.66,1.12,1.64,2.04,2.92,2.76,1.28.72,2.79,1.08,4.51,1.08,2.17,0,4.19-.42,6.07-1.25,1.88-.83,3.33-1.91,4.35-3.22Z" style="stroke-width:0px;"/><path d="m1235.75,171.83h4.51v40.86c0,1.74.31,2.87.93,3.41.62.53,1.37.8,2.26.8.8,0,1.59-.09,2.39-.27.8-.18,1.48-.35,2.06-.53l.8,3.65c-.84.35-1.87.64-3.09.86-1.22.22-2.27.33-3.15.33-2.04,0-3.66-.6-4.88-1.8-1.22-1.2-1.83-2.85-1.83-4.94v-42.38Z" style="stroke-width:0px;"/><path d="m1265.61,196.33c0-2.88.5-5.7,1.49-8.46,1-2.77,2.44-5.29,4.35-7.57,1.9-2.28,4.25-4.09,7.04-5.44,2.79-1.35,5.95-2.02,9.49-2.02,4.2,0,7.8.96,10.79,2.89,2.99,1.92,5.19,4.39,6.61,7.4l-3.65,2.26c-1.02-2.08-2.3-3.73-3.85-4.95-1.55-1.22-3.2-2.09-4.95-2.62-1.75-.53-3.48-.8-5.21-.8-2.83,0-5.33.56-7.5,1.69s-3.99,2.63-5.48,4.51c-1.48,1.88-2.6,3.98-3.35,6.31-.75,2.32-1.13,4.68-1.13,7.07,0,2.61.44,5.11,1.33,7.5.88,2.39,2.12,4.5,3.72,6.34,1.59,1.84,3.46,3.3,5.61,4.38,2.15,1.08,4.48,1.63,7,1.63,1.77,0,3.58-.31,5.44-.93,1.86-.62,3.59-1.57,5.21-2.85,1.61-1.28,2.91-2.94,3.88-4.98l3.85,1.99c-.97,2.35-2.48,4.34-4.51,5.97-2.04,1.64-4.3,2.88-6.8,3.72-2.5.84-4.95,1.26-7.33,1.26-3.23,0-6.2-.7-8.89-2.09-2.7-1.39-5.03-3.25-7-5.58-1.97-2.32-3.48-4.93-4.55-7.83-1.06-2.9-1.59-5.83-1.59-8.79Z" style="stroke-width:0px;"/><path d="m1327.81,220.95c-2.52,0-4.83-.47-6.94-1.42-2.1-.95-3.92-2.24-5.44-3.89-1.53-1.65-2.71-3.54-3.55-5.68-.84-2.13-1.26-4.39-1.26-6.77s.42-4.76,1.26-6.9c.84-2.13,2.04-4.03,3.58-5.68,1.55-1.65,3.37-2.95,5.48-3.89s4.39-1.42,6.87-1.42,4.76.47,6.84,1.42c2.08.95,3.89,2.24,5.44,3.89,1.55,1.65,2.74,3.54,3.58,5.68.84,2.13,1.26,4.43,1.26,6.9s-.42,4.63-1.26,6.77c-.84,2.13-2.03,4.03-3.55,5.68-1.53,1.65-3.34,2.95-5.44,3.89-2.1.94-4.39,1.42-6.87,1.42Zm-12.61-17.69c0,2.55.56,4.87,1.69,6.95,1.13,2.09,2.64,3.73,4.55,4.94,1.9,1.21,4,1.81,6.31,1.81s4.4-.62,6.31-1.85c1.9-1.23,3.43-2.91,4.58-5.04,1.15-2.13,1.73-4.47,1.73-7.02s-.58-4.81-1.73-6.92c-1.15-2.11-2.68-3.78-4.58-5.01-1.9-1.23-4.01-1.85-6.31-1.85s-4.4.64-6.31,1.91c-1.9,1.27-3.42,2.95-4.55,5.04-1.13,2.09-1.69,4.43-1.69,7.02Z" style="stroke-width:0px;"/><path d="m1403.61,220.29h-4.51v-19.19c0-4-.64-6.95-1.93-8.84s-3.19-2.84-5.71-2.84-4.95.92-7,2.77c-2.06,1.85-3.51,4.22-4.35,7.12v20.97h-4.51v-19.19c0-4.04-.62-7-1.86-8.87-1.24-1.87-3.14-2.8-5.71-2.8s-4.89.9-6.97,2.7c-2.08,1.8-3.54,4.17-4.38,7.11v21.05h-4.51v-34.45h4.12v7.85c1.46-2.68,3.33-4.75,5.61-6.2,2.28-1.45,4.81-2.18,7.6-2.18s5.2.81,6.97,2.44c1.77,1.63,2.85,3.76,3.25,6.4,1.59-2.9,3.51-5.1,5.74-6.6s4.77-2.24,7.6-2.24c1.95,0,3.59.35,4.95,1.06,1.35.7,2.43,1.71,3.25,3,.82,1.3,1.42,2.86,1.79,4.69.38,1.83.56,3.86.56,6.1v20.13Z" style="stroke-width:0px;"/><path d="m1464.28,220.29h-4.51v-19.19c0-4-.64-6.95-1.93-8.84s-3.19-2.84-5.71-2.84-4.95.92-7,2.77c-2.06,1.85-3.51,4.22-4.35,7.12v20.97h-4.51v-19.19c0-4.04-.62-7-1.86-8.87-1.24-1.87-3.14-2.8-5.71-2.8s-4.89.9-6.97,2.7c-2.08,1.8-3.54,4.17-4.38,7.11v21.05h-4.51v-34.45h4.12v7.85c1.46-2.68,3.33-4.75,5.61-6.2,2.28-1.45,4.81-2.18,7.6-2.18s5.2.81,6.97,2.44c1.77,1.63,2.85,3.76,3.25,6.4,1.59-2.9,3.51-5.1,5.74-6.6s4.77-2.24,7.6-2.24c1.95,0,3.59.35,4.95,1.06,1.35.7,2.43,1.71,3.25,3,.82,1.3,1.42,2.86,1.79,4.69.38,1.83.56,3.86.56,6.1v20.13Z" style="stroke-width:0px;"/><path d="m1473.51,178.47v-6.64h4.51v6.64h-4.51Zm0,41.82v-34.58h4.51v34.58h-4.51Z" style="stroke-width:0px;"/><path d="m1499,220.95c-2.83,0-5.47-.46-7.9-1.39-2.43-.93-4.54-2.35-6.31-4.25l1.86-3.19c1.95,1.81,3.91,3.13,5.88,3.95,1.97.82,4.06,1.23,6.27,1.23,2.7,0,4.89-.54,6.57-1.61,1.68-1.07,2.52-2.62,2.52-4.64,0-1.36-.41-2.41-1.23-3.14-.82-.73-1.99-1.32-3.52-1.78-1.53-.46-3.35-.96-5.48-1.48-2.39-.66-4.39-1.35-6.01-2.08-1.62-.73-2.83-1.65-3.65-2.77-.82-1.12-1.23-2.58-1.23-4.39,0-2.24.56-4.1,1.69-5.58,1.13-1.47,2.68-2.6,4.65-3.37,1.97-.77,4.17-1.16,6.61-1.16,2.65,0,5,.42,7.04,1.26,2.03.84,3.69,2.01,4.98,3.52l-2.19,3.05c-1.24-1.42-2.71-2.47-4.41-3.15-1.7-.69-3.6-1.03-5.67-1.03-1.42,0-2.77.19-4.05.56-1.28.37-2.33.99-3.15,1.85-.82.86-1.23,2.03-1.23,3.53,0,1.23.31,2.19.93,2.87.62.68,1.55,1.25,2.79,1.72,1.24.46,2.76.96,4.58,1.48,2.61.7,4.89,1.42,6.84,2.14,1.95.73,3.45,1.66,4.51,2.8,1.06,1.14,1.59,2.75,1.59,4.81,0,3.21-1.22,5.72-3.65,7.52-2.43,1.8-5.64,2.7-9.62,2.7Z" style="stroke-width:0px;"/><path d="m1530.73,220.95c-2.83,0-5.47-.46-7.9-1.39-2.43-.93-4.54-2.35-6.31-4.25l1.86-3.19c1.95,1.81,3.91,3.13,5.88,3.95,1.97.82,4.06,1.23,6.27,1.23,2.7,0,4.89-.54,6.57-1.61,1.68-1.07,2.52-2.62,2.52-4.64,0-1.36-.41-2.41-1.23-3.14-.82-.73-1.99-1.32-3.52-1.78-1.53-.46-3.35-.96-5.48-1.48-2.39-.66-4.39-1.35-6.01-2.08-1.62-.73-2.83-1.65-3.65-2.77-.82-1.12-1.23-2.58-1.23-4.39,0-2.24.56-4.1,1.69-5.58,1.13-1.47,2.68-2.6,4.65-3.37,1.97-.77,4.17-1.16,6.61-1.16,2.65,0,5,.42,7.04,1.26,2.03.84,3.69,2.01,4.98,3.52l-2.19,3.05c-1.24-1.42-2.71-2.47-4.41-3.15-1.7-.69-3.6-1.03-5.67-1.03-1.42,0-2.77.19-4.05.56-1.28.37-2.33.99-3.15,1.85-.82.86-1.23,2.03-1.23,3.53,0,1.23.31,2.19.93,2.87.62.68,1.55,1.25,2.79,1.72,1.24.46,2.76.96,4.58,1.48,2.61.7,4.89,1.42,6.84,2.14,1.95.73,3.45,1.66,4.51,2.8,1.06,1.14,1.59,2.75,1.59,4.81,0,3.21-1.22,5.72-3.65,7.52-2.43,1.8-5.64,2.7-9.62,2.7Z" style="stroke-width:0px;"/><path d="m1551.1,178.47v-6.64h4.51v6.64h-4.51Zm0,41.82v-34.58h4.51v34.58h-4.51Z" style="stroke-width:0px;"/><path d="m1580.04,220.95c-2.52,0-4.83-.47-6.94-1.42-2.1-.95-3.92-2.24-5.44-3.89-1.53-1.65-2.71-3.54-3.55-5.68-.84-2.13-1.26-4.39-1.26-6.77s.42-4.76,1.26-6.9c.84-2.13,2.04-4.03,3.58-5.68,1.55-1.65,3.37-2.95,5.48-3.89s4.39-1.42,6.87-1.42,4.76.47,6.84,1.42c2.08.95,3.89,2.24,5.44,3.89,1.55,1.65,2.74,3.54,3.58,5.68.84,2.13,1.26,4.43,1.26,6.9s-.42,4.63-1.26,6.77c-.84,2.13-2.03,4.03-3.55,5.68-1.53,1.65-3.34,2.95-5.44,3.89-2.1.94-4.39,1.42-6.87,1.42Zm-12.61-17.69c0,2.55.56,4.87,1.69,6.95,1.13,2.09,2.64,3.73,4.55,4.94,1.9,1.21,4,1.81,6.31,1.81s4.4-.62,6.31-1.85c1.9-1.23,3.43-2.91,4.58-5.04,1.15-2.13,1.73-4.47,1.73-7.02s-.58-4.81-1.73-6.92c-1.15-2.11-2.68-3.78-4.58-5.01-1.9-1.23-4.01-1.85-6.31-1.85s-4.4.64-6.31,1.91c-1.9,1.27-3.42,2.95-4.55,5.04-1.13,2.09-1.69,4.43-1.69,7.02Z" style="stroke-width:0px;"/><path d="m1633.48,220.29h-4.51v-19.19c0-4.04-.6-7-1.79-8.87-1.19-1.87-3.08-2.8-5.64-2.8-1.77,0-3.52.43-5.24,1.28-1.73.86-3.24,2.02-4.55,3.49-1.31,1.47-2.25,3.15-2.82,5.04v21.05h-4.51v-34.45h4.12v7.85c.93-1.67,2.15-3.13,3.65-4.39,1.5-1.25,3.21-2.23,5.11-2.94,1.9-.7,3.87-1.06,5.91-1.06,1.9,0,3.52.35,4.85,1.06,1.33.7,2.39,1.71,3.19,3,.8,1.3,1.37,2.86,1.73,4.69.35,1.83.53,3.86.53,6.1v20.13Z" style="stroke-width:0px;"/><path d="m1674.16,220.95c-2.52,0-4.83-.47-6.94-1.42-2.1-.95-3.92-2.24-5.44-3.89-1.53-1.65-2.71-3.54-3.55-5.68-.84-2.13-1.26-4.39-1.26-6.77s.42-4.76,1.26-6.9c.84-2.13,2.04-4.03,3.58-5.68,1.55-1.65,3.37-2.95,5.48-3.89s4.39-1.42,6.87-1.42,4.76.47,6.84,1.42c2.08.95,3.89,2.24,5.44,3.89,1.55,1.65,2.74,3.54,3.58,5.68.84,2.13,1.26,4.43,1.26,6.9s-.42,4.63-1.26,6.77c-.84,2.13-2.03,4.03-3.55,5.68-1.53,1.65-3.34,2.95-5.44,3.89-2.1.94-4.39,1.42-6.87,1.42Zm-12.61-17.69c0,2.55.56,4.87,1.69,6.95,1.13,2.09,2.64,3.73,4.55,4.94,1.9,1.21,4,1.81,6.31,1.81s4.4-.62,6.31-1.85c1.9-1.23,3.43-2.91,4.58-5.04,1.15-2.13,1.73-4.47,1.73-7.02s-.58-4.81-1.73-6.92c-1.15-2.11-2.68-3.78-4.58-5.01-1.9-1.23-4.01-1.85-6.31-1.85s-4.4.64-6.31,1.91c-1.9,1.27-3.42,2.95-4.55,5.04-1.13,2.09-1.69,4.43-1.69,7.02Z" style="stroke-width:0px;"/><path d="m1727.6,220.29h-4.51v-19.19c0-4.04-.6-7-1.79-8.87-1.19-1.87-3.08-2.8-5.64-2.8-1.77,0-3.52.43-5.24,1.28-1.73.86-3.24,2.02-4.55,3.49-1.31,1.47-2.25,3.15-2.82,5.04v21.05h-4.51v-34.45h4.12v7.85c.93-1.67,2.15-3.13,3.65-4.39,1.5-1.25,3.21-2.23,5.11-2.94,1.9-.7,3.87-1.06,5.91-1.06,1.9,0,3.52.35,4.85,1.06,1.33.7,2.39,1.71,3.19,3,.8,1.3,1.37,2.86,1.73,4.69.35,1.83.53,3.86.53,6.1v20.13Z" style="stroke-width:0px;"/><path d="m1754.41,220.29v-47.13h4.65v47.13h-4.65Z" style="stroke-width:0px;"/><path d="m1769.81,171.83h4.51v40.86c0,1.74.31,2.87.93,3.41.62.53,1.37.8,2.26.8.8,0,1.59-.09,2.39-.27.8-.18,1.48-.35,2.06-.53l.8,3.65c-.84.35-1.87.64-3.09.86-1.22.22-2.27.33-3.15.33-2.04,0-3.66-.6-4.88-1.8-1.22-1.2-1.83-2.85-1.83-4.94v-42.38Z" style="stroke-width:0px;"/><path d="m1787.53,171.83h4.51v40.86c0,1.74.31,2.87.93,3.41.62.53,1.37.8,2.26.8.8,0,1.59-.09,2.39-.27.8-.18,1.48-.35,2.06-.53l.8,3.65c-.84.35-1.87.64-3.09.86-1.22.22-2.27.33-3.15.33-2.04,0-3.66-.6-4.88-1.8-1.22-1.2-1.83-2.85-1.83-4.94v-42.38Z" style="stroke-width:0px;"/><path d="m1804.73,206.07v-20.23h4.51v19.43c0,3.92.67,6.85,2.02,8.79,1.35,1.94,3.35,2.91,6.01,2.91,1.77,0,3.48-.38,5.14-1.16,1.66-.77,3.13-1.87,4.41-3.3,1.28-1.43,2.26-3.09,2.92-4.98v-21.69h4.51v29.02c0,.62.13,1.07.4,1.35s.66.45,1.2.5v3.58c-.53.04-.95.08-1.26.1-.31.02-.6.03-.86.03-.89-.09-1.65-.44-2.29-1.06s-.98-1.37-1.03-2.25l-.13-4.63c-1.5,2.64-3.55,4.72-6.14,6.22-2.59,1.5-5.39,2.25-8.4,2.25-3.63,0-6.37-1.26-8.23-3.77-1.86-2.51-2.79-6.22-2.79-11.11Z" style="stroke-width:0px;"/><path d="m1895.6,220.29h-4.51v-19.19c0-4-.64-6.95-1.93-8.84s-3.19-2.84-5.71-2.84-4.95.92-7,2.77c-2.06,1.85-3.51,4.22-4.35,7.12v20.97h-4.51v-19.19c0-4.04-.62-7-1.86-8.87-1.24-1.87-3.14-2.8-5.71-2.8s-4.89.9-6.97,2.7c-2.08,1.8-3.54,4.17-4.38,7.11v21.05h-4.51v-34.45h4.12v7.85c1.46-2.68,3.33-4.75,5.61-6.2,2.28-1.45,4.81-2.18,7.6-2.18s5.2.81,6.97,2.44c1.77,1.63,2.85,3.76,3.25,6.4,1.59-2.9,3.51-5.1,5.74-6.6s4.77-2.24,7.6-2.24c1.95,0,3.59.35,4.95,1.06,1.35.7,2.43,1.71,3.25,3,.82,1.3,1.42,2.86,1.79,4.69.38,1.83.56,3.86.56,6.1v20.13Z" style="stroke-width:0px;"/><path d="m1904.82,178.47v-6.64h4.51v6.64h-4.51Zm0,41.82v-34.58h4.51v34.58h-4.51Z" style="stroke-width:0px;"/><path d="m1948.03,220.29h-4.51v-19.19c0-4.04-.6-7-1.79-8.87-1.19-1.87-3.08-2.8-5.64-2.8-1.77,0-3.52.43-5.24,1.28-1.73.86-3.24,2.02-4.55,3.49-1.31,1.47-2.25,3.15-2.82,5.04v21.05h-4.51v-34.45h4.12v7.85c.93-1.67,2.15-3.13,3.65-4.39,1.5-1.25,3.21-2.23,5.11-2.94,1.9-.7,3.87-1.06,5.91-1.06,1.9,0,3.52.35,4.85,1.06,1.33.7,2.39,1.71,3.19,3,.8,1.3,1.37,2.86,1.73,4.69.35,1.83.53,3.86.53,6.1v20.13Z" style="stroke-width:0px;"/><path d="m1954.54,210.4c0-2.15.62-4.01,1.86-5.57,1.24-1.56,2.95-2.77,5.14-3.63,2.19-.86,4.72-1.29,7.6-1.29,1.68,0,3.43.13,5.24.4s3.43.66,4.85,1.19v-2.91c0-2.9-.86-5.21-2.59-6.93-1.73-1.72-4.12-2.57-7.17-2.57-1.86,0-3.68.34-5.48,1.03-1.79.69-3.66,1.69-5.61,3.02l-1.73-3.19c2.26-1.55,4.47-2.71,6.64-3.48,2.17-.77,4.38-1.16,6.64-1.16,4.25,0,7.61,1.21,10.09,3.63,2.48,2.42,3.72,5.76,3.72,10.03v15.9c0,.62.13,1.07.4,1.35.27.29.69.45,1.26.49v3.58c-.49.04-.91.09-1.26.13-.35.04-.62.04-.8,0-1.11-.04-1.95-.4-2.52-1.06-.58-.66-.89-1.37-.93-2.12l-.07-2.52c-1.55,1.99-3.56,3.53-6.04,4.61-2.48,1.08-5,1.63-7.57,1.63-2.21,0-4.21-.47-6.01-1.42-1.79-.95-3.19-2.22-4.18-3.83-1-1.6-1.49-3.38-1.49-5.31Zm23.17,2.63c.49-.61.86-1.21,1.13-1.78.26-.57.4-1.07.4-1.51v-5c-1.5-.57-3.06-1.01-4.68-1.31s-3.24-.46-4.88-.46c-3.23,0-5.84.64-7.83,1.91s-2.99,3-2.99,5.2c0,1.27.33,2.47,1,3.59.66,1.12,1.64,2.04,2.92,2.76,1.28.72,2.79,1.08,4.51,1.08,2.17,0,4.19-.42,6.07-1.25,1.88-.83,3.33-1.91,4.35-3.22Z" style="stroke-width:0px;"/><path d="m2009.5,218.89c-.36.13-.91.38-1.66.73-.75.35-1.66.66-2.72.93-1.06.27-2.21.4-3.45.4s-2.49-.24-3.62-.73c-1.13-.49-2.02-1.23-2.69-2.23-.66-1-1-2.23-1-3.7v-24.86h-4.78v-3.58h4.78v-11.68h4.51v11.68h7.97v3.58h-7.97v23.61c.09,1.24.54,2.18,1.36,2.8.82.62,1.76.93,2.82.93,1.24,0,2.37-.21,3.39-.63,1.02-.42,1.64-.72,1.86-.9l1.2,3.65Z" style="stroke-width:0px;"/><path d="m2014.81,178.47v-6.64h4.51v6.64h-4.51Zm0,41.82v-34.58h4.51v34.58h-4.51Z" style="stroke-width:0px;"/><path d="m2043.75,220.95c-2.52,0-4.83-.47-6.94-1.42-2.1-.95-3.92-2.24-5.44-3.89-1.53-1.65-2.71-3.54-3.55-5.68-.84-2.13-1.26-4.39-1.26-6.77s.42-4.76,1.26-6.9c.84-2.13,2.04-4.03,3.58-5.68,1.55-1.65,3.37-2.95,5.48-3.89s4.39-1.42,6.87-1.42,4.76.47,6.84,1.42c2.08.95,3.89,2.24,5.44,3.89,1.55,1.65,2.74,3.54,3.58,5.68.84,2.13,1.26,4.43,1.26,6.9s-.42,4.63-1.26,6.77c-.84,2.13-2.03,4.03-3.55,5.68-1.53,1.65-3.34,2.95-5.44,3.89-2.1.94-4.39,1.42-6.87,1.42Zm-12.61-17.69c0,2.55.56,4.87,1.69,6.95,1.13,2.09,2.64,3.73,4.55,4.94,1.9,1.21,4,1.81,6.31,1.81s4.4-.62,6.31-1.85c1.9-1.23,3.43-2.91,4.58-5.04,1.15-2.13,1.73-4.47,1.73-7.02s-.58-4.81-1.73-6.92c-1.15-2.11-2.68-3.78-4.58-5.01-1.9-1.23-4.01-1.85-6.31-1.85s-4.4.64-6.31,1.91c-1.9,1.27-3.42,2.95-4.55,5.04-1.13,2.09-1.69,4.43-1.69,7.02Z" style="stroke-width:0px;"/><path d="m2097.18,220.29h-4.51v-19.19c0-4.04-.6-7-1.79-8.87-1.19-1.87-3.08-2.8-5.64-2.8-1.77,0-3.52.43-5.24,1.28-1.73.86-3.24,2.02-4.55,3.49-1.31,1.47-2.25,3.15-2.82,5.04v21.05h-4.51v-34.45h4.12v7.85c.93-1.67,2.15-3.13,3.65-4.39,1.5-1.25,3.21-2.23,5.11-2.94,1.9-.7,3.87-1.06,5.91-1.06,1.9,0,3.52.35,4.85,1.06,1.33.7,2.39,1.71,3.19,3,.8,1.3,1.37,2.86,1.73,4.69.35,1.83.53,3.86.53,6.1v20.13Z" style="stroke-width:0px;"/><path d="m872.75,272.78c0-2.88.5-5.7,1.49-8.46,1-2.77,2.44-5.29,4.35-7.57,1.9-2.28,4.25-4.09,7.04-5.44,2.79-1.35,5.95-2.02,9.49-2.02,4.2,0,7.8.96,10.79,2.89,2.99,1.92,5.19,4.39,6.61,7.4l-3.65,2.26c-1.02-2.08-2.3-3.73-3.85-4.95-1.55-1.22-3.2-2.09-4.95-2.62-1.75-.53-3.48-.8-5.21-.8-2.83,0-5.33.56-7.5,1.69s-3.99,2.63-5.48,4.51c-1.48,1.88-2.6,3.98-3.35,6.31-.75,2.32-1.13,4.68-1.13,7.07,0,2.61.44,5.11,1.33,7.5.88,2.39,2.12,4.5,3.72,6.34,1.59,1.84,3.46,3.3,5.61,4.38,2.15,1.08,4.48,1.63,7,1.63,1.77,0,3.58-.31,5.44-.93,1.86-.62,3.59-1.57,5.21-2.85,1.61-1.28,2.91-2.94,3.88-4.98l3.85,1.99c-.97,2.35-2.48,4.34-4.51,5.97-2.04,1.64-4.3,2.88-6.8,3.72s-4.95,1.26-7.33,1.26c-3.23,0-6.2-.7-8.89-2.09s-5.03-3.25-7-5.58c-1.97-2.32-3.48-4.93-4.55-7.83-1.06-2.9-1.59-5.83-1.59-8.79Z" style="fill:#00437e; stroke-width:0px;"/><path d="m933.95,297.41c-2.52,0-4.83-.47-6.94-1.42-2.1-.95-3.92-2.24-5.44-3.89-1.53-1.65-2.71-3.54-3.55-5.68-.84-2.13-1.26-4.39-1.26-6.76s.42-4.76,1.26-6.9,2.04-4.03,3.58-5.68c1.55-1.65,3.37-2.95,5.48-3.89s4.39-1.42,6.87-1.42,4.76.47,6.84,1.42c2.08.95,3.89,2.24,5.44,3.89,1.55,1.65,2.74,3.54,3.58,5.68.84,2.13,1.26,4.43,1.26,6.9s-.42,4.63-1.26,6.76c-.84,2.13-2.03,4.03-3.55,5.68s-3.34,2.95-5.44,3.89c-2.1.95-4.39,1.42-6.87,1.42Zm-12.61-17.69c0,2.55.56,4.87,1.69,6.95,1.13,2.09,2.64,3.73,4.55,4.94,1.9,1.21,4,1.81,6.31,1.81s4.4-.62,6.31-1.85c1.9-1.23,3.43-2.91,4.58-5.04,1.15-2.13,1.73-4.47,1.73-7.02s-.58-4.81-1.73-6.92c-1.15-2.11-2.68-3.78-4.58-5.01-1.9-1.23-4.01-1.85-6.31-1.85s-4.4.64-6.31,1.91c-1.9,1.27-3.42,2.96-4.55,5.04-1.13,2.09-1.69,4.43-1.69,7.02Z" style="fill:#00437e; stroke-width:0px;"/><path d="m1008.76,296.74h-4.51v-19.19c0-4-.64-6.95-1.93-8.84s-3.19-2.84-5.71-2.84-4.95.92-7,2.77c-2.06,1.85-3.51,4.22-4.35,7.12v20.97h-4.51v-19.19c0-4.04-.62-7-1.86-8.87-1.24-1.87-3.14-2.8-5.71-2.8s-4.89.9-6.97,2.7c-2.08,1.8-3.54,4.17-4.38,7.11v21.05h-4.51v-34.45h4.12v7.85c1.46-2.68,3.33-4.75,5.61-6.2,2.28-1.45,4.81-2.18,7.6-2.18s5.2.81,6.97,2.44c1.77,1.63,2.85,3.76,3.25,6.4,1.59-2.9,3.51-5.1,5.74-6.6s4.77-2.24,7.6-2.24c1.95,0,3.59.35,4.95,1.06,1.35.7,2.43,1.71,3.25,3,.82,1.3,1.42,2.86,1.79,4.69.38,1.83.56,3.86.56,6.1v20.13Z" style="fill:#00437e; stroke-width:0px;"/><path d="m1068.43,296.74h-4.51v-19.19c0-4-.64-6.95-1.93-8.84s-3.19-2.84-5.71-2.84-4.95.92-7,2.77c-2.06,1.85-3.51,4.22-4.35,7.12v20.97h-4.51v-19.19c0-4.04-.62-7-1.86-8.87-1.24-1.87-3.14-2.8-5.71-2.8s-4.89.9-6.97,2.7c-2.08,1.8-3.54,4.17-4.38,7.11v21.05h-4.51v-34.45h4.12v7.85c1.46-2.68,3.33-4.75,5.61-6.2,2.28-1.45,4.81-2.18,7.6-2.18s5.2.81,6.97,2.44c1.77,1.63,2.85,3.76,3.25,6.4,1.59-2.9,3.51-5.1,5.74-6.6s4.77-2.24,7.6-2.24c1.95,0,3.59.35,4.95,1.06,1.35.7,2.43,1.71,3.25,3,.82,1.3,1.42,2.86,1.79,4.69.38,1.83.56,3.86.56,6.1v20.13Z" style="fill:#00437e; stroke-width:0px;"/><path d="m1076.66,254.92v-6.64h4.51v6.64h-4.51Zm0,41.82v-34.58h4.51v34.58h-4.51Z" style="fill:#00437e; stroke-width:0px;"/><path d="m1101.15,297.41c-2.83,0-5.47-.46-7.9-1.39-2.43-.93-4.54-2.35-6.31-4.25l1.86-3.19c1.95,1.81,3.91,3.13,5.88,3.95,1.97.82,4.06,1.23,6.27,1.23,2.7,0,4.89-.54,6.57-1.61s2.52-2.62,2.52-4.64c0-1.36-.41-2.41-1.23-3.14-.82-.73-1.99-1.32-3.52-1.78-1.53-.46-3.35-.96-5.48-1.48-2.39-.66-4.39-1.35-6.01-2.08-1.62-.73-2.83-1.65-3.65-2.77-.82-1.12-1.23-2.58-1.23-4.39,0-2.25.56-4.1,1.69-5.58,1.13-1.47,2.68-2.6,4.65-3.37,1.97-.77,4.17-1.16,6.61-1.16,2.65,0,5,.42,7.04,1.26,2.03.84,3.69,2.01,4.98,3.52l-2.19,3.05c-1.24-1.42-2.71-2.47-4.41-3.15-1.7-.69-3.6-1.03-5.67-1.03-1.42,0-2.77.19-4.05.56-1.28.37-2.33.99-3.15,1.85-.82.86-1.23,2.03-1.23,3.53,0,1.23.31,2.19.93,2.87.62.68,1.55,1.25,2.79,1.71,1.24.46,2.76.96,4.58,1.48,2.61.7,4.89,1.42,6.84,2.14,1.95.73,3.45,1.66,4.51,2.8,1.06,1.14,1.59,2.75,1.59,4.81,0,3.21-1.22,5.72-3.65,7.52-2.43,1.8-5.64,2.71-9.62,2.71Z" style="fill:#00437e; stroke-width:0px;"/><path d="m1131.88,297.41c-2.83,0-5.47-.46-7.9-1.39-2.43-.93-4.54-2.35-6.31-4.25l1.86-3.19c1.95,1.81,3.91,3.13,5.88,3.95,1.97.82,4.06,1.23,6.27,1.23,2.7,0,4.89-.54,6.57-1.61s2.52-2.62,2.52-4.64c0-1.36-.41-2.41-1.23-3.14-.82-.73-1.99-1.32-3.52-1.78-1.53-.46-3.35-.96-5.48-1.48-2.39-.66-4.39-1.35-6.01-2.08-1.62-.73-2.83-1.65-3.65-2.77-.82-1.12-1.23-2.58-1.23-4.39,0-2.25.56-4.1,1.69-5.58,1.13-1.47,2.68-2.6,4.65-3.37,1.97-.77,4.17-1.16,6.61-1.16,2.65,0,5,.42,7.04,1.26,2.03.84,3.69,2.01,4.98,3.52l-2.19,3.05c-1.24-1.42-2.71-2.47-4.41-3.15-1.7-.69-3.6-1.03-5.67-1.03-1.42,0-2.77.19-4.05.56-1.28.37-2.33.99-3.15,1.85-.82.86-1.23,2.03-1.23,3.53,0,1.23.31,2.19.93,2.87.62.68,1.55,1.25,2.79,1.71,1.24.46,2.76.96,4.58,1.48,2.61.7,4.89,1.42,6.84,2.14,1.95.73,3.45,1.66,4.51,2.8,1.06,1.14,1.59,2.75,1.59,4.81,0,3.21-1.22,5.72-3.65,7.52-2.43,1.8-5.64,2.71-9.62,2.71Z" style="fill:#00437e; stroke-width:0px;"/><path d="m1151.27,254.92v-6.64h4.51v6.64h-4.51Zm0,41.82v-34.58h4.51v34.58h-4.51Z" style="fill:#00437e; stroke-width:0px;"/><path d="m1179.21,297.41c-2.52,0-4.83-.47-6.94-1.42-2.1-.95-3.92-2.24-5.44-3.89-1.53-1.65-2.71-3.54-3.55-5.68-.84-2.13-1.26-4.39-1.26-6.76s.42-4.76,1.26-6.9,2.04-4.03,3.58-5.68c1.55-1.65,3.37-2.95,5.48-3.89s4.39-1.42,6.87-1.42,4.76.47,6.84,1.42c2.08.95,3.89,2.24,5.44,3.89,1.55,1.65,2.74,3.54,3.58,5.68.84,2.13,1.26,4.43,1.26,6.9s-.42,4.63-1.26,6.76c-.84,2.13-2.03,4.03-3.55,5.68s-3.34,2.95-5.44,3.89c-2.1.95-4.39,1.42-6.87,1.42Zm-12.61-17.69c0,2.55.56,4.87,1.69,6.95,1.13,2.09,2.64,3.73,4.55,4.94,1.9,1.21,4,1.81,6.31,1.81s4.4-.62,6.31-1.85c1.9-1.23,3.43-2.91,4.58-5.04,1.15-2.13,1.73-4.47,1.73-7.02s-.58-4.81-1.73-6.92c-1.15-2.11-2.68-3.78-4.58-5.01-1.9-1.23-4.01-1.85-6.31-1.85s-4.4.64-6.31,1.91c-1.9,1.27-3.42,2.96-4.55,5.04-1.13,2.09-1.69,4.43-1.69,7.02Z" style="fill:#00437e; stroke-width:0px;"/><path d="m1231.65,296.74h-4.51v-19.19c0-4.04-.6-7-1.79-8.87-1.19-1.87-3.08-2.8-5.64-2.8-1.77,0-3.52.43-5.24,1.28-1.73.86-3.24,2.02-4.55,3.49-1.31,1.47-2.25,3.15-2.82,5.04v21.05h-4.51v-34.45h4.12v7.85c.93-1.67,2.15-3.13,3.65-4.39,1.5-1.25,3.21-2.23,5.11-2.94,1.9-.7,3.87-1.06,5.91-1.06,1.9,0,3.52.35,4.85,1.06,1.33.7,2.39,1.71,3.19,3,.8,1.3,1.37,2.86,1.73,4.69.35,1.83.53,3.86.53,6.1v20.13Z" style="fill:#00437e; stroke-width:0px;"/><path d="m1256.47,296.74v-47.13h4.65v47.13h-4.65Z" style="fill:#00437e; stroke-width:0px;"/><path d="m1299.75,296.74h-4.51v-19.19c0-4.04-.6-7-1.79-8.87-1.19-1.87-3.08-2.8-5.64-2.8-1.77,0-3.52.43-5.24,1.28-1.73.86-3.24,2.02-4.55,3.49-1.31,1.47-2.25,3.15-2.82,5.04v21.05h-4.51v-34.45h4.12v7.85c.93-1.67,2.15-3.13,3.65-4.39,1.5-1.25,3.21-2.23,5.11-2.94,1.9-.7,3.87-1.06,5.91-1.06,1.9,0,3.52.35,4.85,1.06,1.33.7,2.39,1.71,3.19,3,.8,1.3,1.37,2.86,1.73,4.69.35,1.83.53,3.86.53,6.1v20.13Z" style="fill:#00437e; stroke-width:0px;"/><path d="m1324.31,295.35c-.36.13-.91.38-1.66.73-.75.35-1.66.66-2.72.93-1.06.27-2.21.4-3.45.4s-2.49-.25-3.62-.73c-1.13-.49-2.02-1.23-2.69-2.23-.66-1-1-2.23-1-3.7v-24.86h-4.78v-3.58h4.78v-11.68h4.51v11.68h7.97v3.58h-7.97v23.61c.09,1.25.54,2.18,1.36,2.8.82.62,1.76.93,2.82.93,1.24,0,2.37-.21,3.39-.63,1.02-.42,1.64-.72,1.86-.9l1.2,3.65Z" style="fill:#00437e; stroke-width:0px;"/><path d="m1342.7,297.41c-2.48,0-4.78-.47-6.9-1.42s-3.96-2.25-5.51-3.9c-1.55-1.65-2.75-3.56-3.62-5.72-.86-2.16-1.29-4.48-1.29-6.94,0-3.21.74-6.15,2.22-8.83,1.48-2.68,3.53-4.82,6.14-6.42,2.61-1.6,5.58-2.41,8.89-2.41s6.38.81,8.93,2.44c2.54,1.63,4.55,3.77,6.01,6.43s2.19,5.57,2.19,8.74v1.02c0,.33-.02.58-.07.76h-29.6c.22,2.47.92,4.66,2.09,6.57,1.17,1.92,2.7,3.43,4.58,4.56,1.88,1.12,3.93,1.68,6.14,1.68s4.39-.57,6.41-1.73c2.01-1.15,3.42-2.66,4.21-4.51l3.92,1.06c-.71,1.64-1.79,3.12-3.25,4.45-1.46,1.33-3.18,2.36-5.14,3.09-1.97.73-4.08,1.1-6.34,1.1Zm-12.74-19.52h25.56c-.18-2.5-.85-4.68-2.02-6.57-1.17-1.88-2.7-3.36-4.58-4.43-1.88-1.07-3.95-1.61-6.21-1.61s-4.31.54-6.17,1.61c-1.86,1.07-3.38,2.56-4.55,4.47-1.17,1.91-1.85,4.08-2.02,6.54Z" style="fill:#00437e; stroke-width:0px;"/><path d="m1382.66,266.14c-3.01.09-5.65.93-7.93,2.52-2.28,1.59-3.88,3.78-4.81,6.57v21.51h-4.51v-34.45h4.25v8.17c1.19-2.43,2.78-4.4,4.75-5.91,1.97-1.5,4.06-2.35,6.27-2.52.44-.04.83-.07,1.16-.07s.61.02.83.07v4.12Z" style="fill:#00437e; stroke-width:0px;"/><path d="m1416.44,296.74h-4.51v-19.19c0-4.04-.6-7-1.79-8.87-1.19-1.87-3.08-2.8-5.64-2.8-1.77,0-3.52.43-5.24,1.28-1.73.86-3.24,2.02-4.55,3.49-1.31,1.47-2.25,3.15-2.82,5.04v21.05h-4.51v-34.45h4.12v7.85c.93-1.67,2.15-3.13,3.65-4.39,1.5-1.25,3.21-2.23,5.11-2.94,1.9-.7,3.87-1.06,5.91-1.06,1.9,0,3.52.35,4.85,1.06,1.33.7,2.39,1.71,3.19,3,.8,1.3,1.37,2.86,1.73,4.69.35,1.83.53,3.86.53,6.1v20.13Z" style="fill:#00437e; stroke-width:0px;"/><path d="m1421.95,286.85c0-2.15.62-4.01,1.86-5.57,1.24-1.56,2.95-2.77,5.14-3.63,2.19-.86,4.72-1.29,7.6-1.29,1.68,0,3.43.13,5.24.4s3.43.66,4.85,1.19v-2.91c0-2.9-.86-5.21-2.59-6.93-1.73-1.72-4.12-2.57-7.17-2.57-1.86,0-3.68.34-5.48,1.03-1.79.69-3.66,1.69-5.61,3.02l-1.73-3.19c2.26-1.55,4.47-2.71,6.64-3.48,2.17-.77,4.38-1.16,6.64-1.16,4.25,0,7.61,1.21,10.09,3.63,2.48,2.42,3.72,5.76,3.72,10.03v15.9c0,.62.13,1.07.4,1.35.27.29.69.45,1.26.5v3.58c-.49.04-.91.09-1.26.13-.35.04-.62.04-.8,0-1.11-.04-1.95-.4-2.52-1.06-.58-.66-.89-1.37-.93-2.12l-.07-2.52c-1.55,1.99-3.56,3.53-6.04,4.61-2.48,1.08-5,1.63-7.57,1.63-2.21,0-4.21-.47-6.01-1.42-1.79-.95-3.19-2.22-4.18-3.83-1-1.6-1.49-3.38-1.49-5.31Zm23.17,2.63c.49-.61.86-1.21,1.13-1.78.26-.57.4-1.07.4-1.51v-5c-1.5-.57-3.06-1.01-4.68-1.32-1.62-.31-3.24-.46-4.88-.46-3.23,0-5.84.64-7.83,1.91s-2.99,3-2.99,5.2c0,1.27.33,2.47,1,3.58.66,1.12,1.64,2.04,2.92,2.76,1.28.72,2.79,1.08,4.51,1.08,2.17,0,4.19-.42,6.07-1.25,1.88-.83,3.33-1.91,4.35-3.22Z" style="fill:#00437e; stroke-width:0px;"/><path d="m1475.92,295.35c-.36.13-.91.38-1.66.73-.75.35-1.66.66-2.72.93-1.06.27-2.21.4-3.45.4s-2.49-.25-3.62-.73c-1.13-.49-2.02-1.23-2.69-2.23-.66-1-1-2.23-1-3.7v-24.86h-4.78v-3.58h4.78v-11.68h4.51v11.68h7.97v3.58h-7.97v23.61c.09,1.25.54,2.18,1.36,2.8.82.62,1.76.93,2.82.93,1.24,0,2.37-.21,3.39-.63,1.02-.42,1.64-.72,1.86-.9l1.2,3.65Z" style="fill:#00437e; stroke-width:0px;"/><path d="m1480.23,254.92v-6.64h4.51v6.64h-4.51Zm0,41.82v-34.58h4.51v34.58h-4.51Z" style="fill:#00437e; stroke-width:0px;"/><path d="m1508.18,297.41c-2.52,0-4.83-.47-6.94-1.42-2.1-.95-3.92-2.24-5.44-3.89-1.53-1.65-2.71-3.54-3.55-5.68-.84-2.13-1.26-4.39-1.26-6.76s.42-4.76,1.26-6.9,2.04-4.03,3.58-5.68c1.55-1.65,3.37-2.95,5.48-3.89s4.39-1.42,6.87-1.42,4.76.47,6.84,1.42c2.08.95,3.89,2.24,5.44,3.89,1.55,1.65,2.74,3.54,3.58,5.68.84,2.13,1.26,4.43,1.26,6.9s-.42,4.63-1.26,6.76c-.84,2.13-2.03,4.03-3.55,5.68s-3.34,2.95-5.44,3.89c-2.1.95-4.39,1.42-6.87,1.42Zm-12.61-17.69c0,2.55.56,4.87,1.69,6.95,1.13,2.09,2.64,3.73,4.55,4.94,1.9,1.21,4,1.81,6.31,1.81s4.4-.62,6.31-1.85c1.9-1.23,3.43-2.91,4.58-5.04,1.15-2.13,1.73-4.47,1.73-7.02s-.58-4.81-1.73-6.92c-1.15-2.11-2.68-3.78-4.58-5.01-1.9-1.23-4.01-1.85-6.31-1.85s-4.4.64-6.31,1.91c-1.9,1.27-3.42,2.96-4.55,5.04-1.13,2.09-1.69,4.43-1.69,7.02Z" style="fill:#00437e; stroke-width:0px;"/><path d="m1560.61,296.74h-4.51v-19.19c0-4.04-.6-7-1.79-8.87-1.19-1.87-3.08-2.8-5.64-2.8-1.77,0-3.52.43-5.24,1.28-1.73.86-3.24,2.02-4.55,3.49-1.31,1.47-2.25,3.15-2.82,5.04v21.05h-4.51v-34.45h4.12v7.85c.93-1.67,2.15-3.13,3.65-4.39,1.5-1.25,3.21-2.23,5.11-2.94,1.9-.7,3.87-1.06,5.91-1.06,1.9,0,3.52.35,4.85,1.06,1.33.7,2.39,1.71,3.19,3,.8,1.3,1.37,2.86,1.73,4.69.35,1.83.53,3.86.53,6.1v20.13Z" style="fill:#00437e; stroke-width:0px;"/><path d="m1566.12,286.85c0-2.15.62-4.01,1.86-5.57,1.24-1.56,2.95-2.77,5.14-3.63,2.19-.86,4.72-1.29,7.6-1.29,1.68,0,3.43.13,5.24.4s3.43.66,4.85,1.19v-2.91c0-2.9-.86-5.21-2.59-6.93-1.73-1.72-4.12-2.57-7.17-2.57-1.86,0-3.68.34-5.48,1.03-1.79.69-3.66,1.69-5.61,3.02l-1.73-3.19c2.26-1.55,4.47-2.71,6.64-3.48,2.17-.77,4.38-1.16,6.64-1.16,4.25,0,7.61,1.21,10.09,3.63,2.48,2.42,3.72,5.76,3.72,10.03v15.9c0,.62.13,1.07.4,1.35.27.29.69.45,1.26.5v3.58c-.49.04-.91.09-1.26.13-.35.04-.62.04-.8,0-1.11-.04-1.95-.4-2.52-1.06-.58-.66-.89-1.37-.93-2.12l-.07-2.52c-1.55,1.99-3.56,3.53-6.04,4.61-2.48,1.08-5,1.63-7.57,1.63-2.21,0-4.21-.47-6.01-1.42-1.79-.95-3.19-2.22-4.18-3.83-1-1.6-1.49-3.38-1.49-5.31Zm23.17,2.63c.49-.61.86-1.21,1.13-1.78.26-.57.4-1.07.4-1.51v-5c-1.5-.57-3.06-1.01-4.68-1.32-1.62-.31-3.24-.46-4.88-.46-3.23,0-5.84.64-7.83,1.91s-2.99,3-2.99,5.2c0,1.27.33,2.47,1,3.58.66,1.12,1.64,2.04,2.92,2.76,1.28.72,2.79,1.08,4.51,1.08,2.17,0,4.19-.42,6.07-1.25,1.88-.83,3.33-1.91,4.35-3.22Z" style="fill:#00437e; stroke-width:0px;"/><path d="m1603.96,248.29h4.51v40.86c0,1.74.31,2.87.93,3.41.62.53,1.37.8,2.26.8.8,0,1.59-.09,2.39-.27.8-.18,1.48-.35,2.06-.53l.8,3.65c-.84.36-1.87.64-3.09.86-1.22.22-2.27.33-3.15.33-2.04,0-3.66-.6-4.88-1.8-1.22-1.2-1.83-2.85-1.83-4.94v-42.38Z" style="fill:#00437e; stroke-width:0px;"/><path d="m1635.42,297.41c-2.48,0-4.78-.47-6.9-1.42s-3.96-2.25-5.51-3.9c-1.55-1.65-2.75-3.56-3.62-5.72-.86-2.16-1.29-4.48-1.29-6.94,0-3.21.74-6.15,2.22-8.83,1.48-2.68,3.53-4.82,6.14-6.42,2.61-1.6,5.58-2.41,8.89-2.41s6.38.81,8.93,2.44c2.54,1.63,4.55,3.77,6.01,6.43s2.19,5.57,2.19,8.74v1.02c0,.33-.02.58-.07.76h-29.6c.22,2.47.92,4.66,2.09,6.57,1.17,1.92,2.7,3.43,4.58,4.56,1.88,1.12,3.93,1.68,6.14,1.68s4.39-.57,6.41-1.73c2.01-1.15,3.42-2.66,4.21-4.51l3.92,1.06c-.71,1.64-1.79,3.12-3.25,4.45-1.46,1.33-3.18,2.36-5.14,3.09-1.97.73-4.08,1.1-6.34,1.1Zm-12.74-19.52h25.56c-.18-2.5-.85-4.68-2.02-6.57-1.17-1.88-2.7-3.36-4.58-4.43-1.88-1.07-3.95-1.61-6.21-1.61s-4.31.54-6.17,1.61c-1.86,1.07-3.38,2.56-4.55,4.47-1.17,1.91-1.85,4.08-2.02,6.54Z" style="fill:#00437e; stroke-width:0px;"/><path d="m1671.4,279.65c0-3.26.67-6.24,2.02-8.95,1.35-2.71,3.22-4.87,5.61-6.5,2.39-1.63,5.11-2.44,8.16-2.44,2.88,0,5.45.76,7.73,2.29,2.28,1.53,4.06,3.38,5.34,5.54v-21.31h4.51v43.01c0,.62.13,1.07.4,1.36.27.29.66.45,1.2.5v3.58c-.89.13-1.57.18-2.06.13-.93-.04-1.75-.42-2.46-1.13-.71-.71-1.06-1.48-1.06-2.32v-3.39c-1.37,2.26-3.23,4.05-5.58,5.38-2.35,1.33-4.78,1.99-7.3,1.99-2.39,0-4.59-.48-6.6-1.45-2.01-.97-3.76-2.29-5.24-3.96-1.48-1.67-2.63-3.58-3.45-5.71-.82-2.13-1.23-4.35-1.23-6.63Zm28.87,5.27v-10.61c-.58-1.58-1.5-3.02-2.79-4.32-1.28-1.3-2.73-2.33-4.35-3.1-1.62-.77-3.22-1.15-4.81-1.15-1.86,0-3.54.38-5.04,1.15-1.5.77-2.8,1.81-3.88,3.13-1.08,1.32-1.91,2.81-2.49,4.48s-.86,3.38-.86,5.14c0,1.84.32,3.6.96,5.27s1.56,3.15,2.75,4.45c1.2,1.3,2.57,2.3,4.12,3s3.23,1.05,5.04,1.05c1.15,0,2.35-.22,3.58-.66,1.24-.44,2.42-1.04,3.55-1.81,1.13-.77,2.07-1.68,2.82-2.74.75-1.05,1.22-2.15,1.39-3.29Z" style="fill:#00437e; stroke-width:0px;"/><path d="m1728.61,297.41c-2.48,0-4.78-.47-6.9-1.42s-3.96-2.25-5.51-3.9c-1.55-1.65-2.75-3.56-3.62-5.72-.86-2.16-1.29-4.48-1.29-6.94,0-3.21.74-6.15,2.22-8.83,1.48-2.68,3.53-4.82,6.14-6.42,2.61-1.6,5.58-2.41,8.89-2.41s6.38.81,8.93,2.44c2.54,1.63,4.55,3.77,6.01,6.43s2.19,5.57,2.19,8.74v1.02c0,.33-.02.58-.07.76h-29.6c.22,2.47.92,4.66,2.09,6.57,1.17,1.92,2.7,3.43,4.58,4.56,1.88,1.12,3.93,1.68,6.14,1.68s4.39-.57,6.41-1.73c2.01-1.15,3.42-2.66,4.21-4.51l3.92,1.06c-.71,1.64-1.79,3.12-3.25,4.45-1.46,1.33-3.18,2.36-5.14,3.09-1.97.73-4.08,1.1-6.34,1.1Zm-12.74-19.52h25.56c-.18-2.5-.85-4.68-2.02-6.57-1.17-1.88-2.7-3.36-4.58-4.43-1.88-1.07-3.95-1.61-6.21-1.61s-4.31.54-6.17,1.61c-1.86,1.07-3.38,2.56-4.55,4.47-1.17,1.91-1.85,4.08-2.02,6.54Z" style="fill:#00437e; stroke-width:0px;"/><path d="m1767.11,248.29h4.51v40.86c0,1.74.31,2.87.93,3.41.62.53,1.37.8,2.26.8.8,0,1.59-.09,2.39-.27.8-.18,1.48-.35,2.06-.53l.8,3.65c-.84.36-1.87.64-3.09.86-1.22.22-2.27.33-3.15.33-2.04,0-3.66-.6-4.88-1.8-1.22-1.2-1.83-2.85-1.83-4.94v-42.38Z" style="fill:#00437e; stroke-width:0px;"/><path d="m1780.79,262.16l1.13-7.1h-1.59v-6.77h4.38v6.77l-1.66,7.1h-2.26Z" style="fill:#00437e; stroke-width:0px;"/><path d="m1824.93,292.63v4.12h-31.66v-47.13h31.07v4.12h-26.42v16.99h23.03v3.92h-23.03v17.99h27.02Z" style="fill:#00437e; stroke-width:0px;"/><path d="m1844.91,297.41c-2.52,0-4.83-.47-6.94-1.42-2.1-.95-3.94-2.26-5.51-3.93-1.57-1.67-2.79-3.59-3.65-5.74-.86-2.16-1.29-4.44-1.29-6.87,0-3.26.73-6.23,2.19-8.91,1.46-2.68,3.5-4.82,6.11-6.4,2.61-1.58,5.62-2.38,9.03-2.38,3.23,0,6.08.74,8.56,2.22,2.48,1.48,4.31,3.49,5.51,6.01l-4.38,1.39c-.97-1.77-2.33-3.15-4.08-4.15-1.75-1-3.68-1.49-5.81-1.49-2.3,0-4.4.59-6.31,1.78-1.9,1.19-3.42,2.81-4.55,4.88-1.13,2.06-1.69,4.42-1.69,7.05s.57,4.94,1.73,7.05c1.15,2.11,2.68,3.79,4.58,5.04,1.9,1.25,4,1.88,6.31,1.88,1.5,0,2.95-.27,4.35-.8,1.39-.53,2.61-1.25,3.65-2.16,1.04-.91,1.74-1.89,2.09-2.95l4.45,1.33c-.62,1.64-1.65,3.11-3.09,4.41-1.44,1.31-3.12,2.32-5.04,3.05-1.92.73-3.99,1.1-6.21,1.1Z" style="fill:#00437e; stroke-width:0px;"/><path d="m1865.22,248.29h4.51v40.86c0,1.74.31,2.87.93,3.41.62.53,1.37.8,2.26.8.8,0,1.59-.09,2.39-.27.8-.18,1.48-.35,2.06-.53l.8,3.65c-.84.36-1.87.64-3.09.86-1.22.22-2.27.33-3.15.33-2.04,0-3.66-.6-4.88-1.8-1.22-1.2-1.83-2.85-1.83-4.94v-42.38Z" style="fill:#00437e; stroke-width:0px;"/><path d="m1878.96,286.85c0-2.15.62-4.01,1.86-5.57,1.24-1.56,2.95-2.77,5.14-3.63,2.19-.86,4.72-1.29,7.6-1.29,1.68,0,3.43.13,5.24.4s3.43.66,4.85,1.19v-2.91c0-2.9-.86-5.21-2.59-6.93-1.73-1.72-4.12-2.57-7.17-2.57-1.86,0-3.68.34-5.48,1.03-1.79.69-3.66,1.69-5.61,3.02l-1.73-3.19c2.26-1.55,4.47-2.71,6.64-3.48,2.17-.77,4.38-1.16,6.64-1.16,4.25,0,7.61,1.21,10.09,3.63,2.48,2.42,3.72,5.76,3.72,10.03v15.9c0,.62.13,1.07.4,1.35.27.29.69.45,1.26.5v3.58c-.49.04-.91.09-1.26.13-.35.04-.62.04-.8,0-1.11-.04-1.95-.4-2.52-1.06-.58-.66-.89-1.37-.93-2.12l-.07-2.52c-1.55,1.99-3.56,3.53-6.04,4.61-2.48,1.08-5,1.63-7.57,1.63-2.21,0-4.21-.47-6.01-1.42-1.79-.95-3.19-2.22-4.18-3.83-1-1.6-1.49-3.38-1.49-5.31Zm23.17,2.63c.49-.61.86-1.21,1.13-1.78.26-.57.4-1.07.4-1.51v-5c-1.5-.57-3.06-1.01-4.68-1.32-1.62-.31-3.24-.46-4.88-.46-3.23,0-5.84.64-7.83,1.91s-2.99,3-2.99,5.2c0,1.27.33,2.47,1,3.58.66,1.12,1.64,2.04,2.92,2.76,1.28.72,2.79,1.08,4.51,1.08,2.17,0,4.19-.42,6.07-1.25,1.88-.83,3.33-1.91,4.35-3.22Z" style="fill:#00437e; stroke-width:0px;"/><path d="m1916.59,254.92v-6.64h4.51v6.64h-4.51Zm0,41.82v-34.58h4.51v34.58h-4.51Z" style="fill:#00437e; stroke-width:0px;"/><path d="m1946.99,266.14c-3.01.09-5.65.93-7.93,2.52-2.28,1.59-3.88,3.78-4.81,6.57v21.51h-4.51v-34.45h4.25v8.17c1.19-2.43,2.78-4.4,4.75-5.91,1.97-1.5,4.06-2.35,6.27-2.52.44-.04.83-.07,1.16-.07s.61.02.83.07v4.12Z" style="fill:#00437e; stroke-width:0px;"/><path d="m1948.45,286.85c0-2.15.62-4.01,1.86-5.57,1.24-1.56,2.95-2.77,5.14-3.63,2.19-.86,4.72-1.29,7.6-1.29,1.68,0,3.43.13,5.24.4s3.43.66,4.85,1.19v-2.91c0-2.9-.86-5.21-2.59-6.93-1.73-1.72-4.12-2.57-7.17-2.57-1.86,0-3.68.34-5.48,1.03-1.79.69-3.66,1.69-5.61,3.02l-1.73-3.19c2.26-1.55,4.47-2.71,6.64-3.48,2.17-.77,4.38-1.16,6.64-1.16,4.25,0,7.61,1.21,10.09,3.63,2.48,2.42,3.72,5.76,3.72,10.03v15.9c0,.62.13,1.07.4,1.35.27.29.69.45,1.26.5v3.58c-.49.04-.91.09-1.26.13-.35.04-.62.04-.8,0-1.11-.04-1.95-.4-2.52-1.06-.58-.66-.89-1.37-.93-2.12l-.07-2.52c-1.55,1.99-3.56,3.53-6.04,4.61-2.48,1.08-5,1.63-7.57,1.63-2.21,0-4.21-.47-6.01-1.42-1.79-.95-3.19-2.22-4.18-3.83-1-1.6-1.49-3.38-1.49-5.31Zm23.17,2.63c.49-.61.86-1.21,1.13-1.78.26-.57.4-1.07.4-1.51v-5c-1.5-.57-3.06-1.01-4.68-1.32-1.62-.31-3.24-.46-4.88-.46-3.23,0-5.84.64-7.83,1.91s-2.99,3-2.99,5.2c0,1.27.33,2.47,1,3.58.66,1.12,1.64,2.04,2.92,2.76,1.28.72,2.79,1.08,4.51,1.08,2.17,0,4.19-.42,6.07-1.25,1.88-.83,3.33-1.91,4.35-3.22Z" style="fill:#00437e; stroke-width:0px;"/><path d="m1999.96,297.41c-2.35,0-4.51-.49-6.5-1.46-1.99-.97-3.71-2.29-5.14-3.95-1.44-1.66-2.56-3.55-3.35-5.67-.8-2.12-1.19-4.31-1.19-6.57,0-2.43.39-4.72,1.16-6.87s1.88-4.06,3.32-5.74c1.44-1.68,3.13-3,5.08-3.95,1.95-.95,4.12-1.43,6.5-1.43,2.96,0,5.54.74,7.73,2.22,2.19,1.48,4.04,3.33,5.54,5.54v-7.24h4.05v34.62c0,3.18-.76,5.86-2.29,8.04-1.53,2.18-3.58,3.83-6.17,4.93-2.59,1.1-5.41,1.65-8.46,1.65-3.94,0-7.13-.71-9.56-2.12-2.43-1.42-4.43-3.32-5.97-5.71l2.79-2.19c1.37,2.17,3.2,3.78,5.48,4.85,2.28,1.06,4.7,1.59,7.27,1.59,2.26,0,4.32-.4,6.21-1.21,1.88-.8,3.39-2.01,4.51-3.62,1.13-1.61,1.69-3.63,1.69-6.07v-6.84c-1.33,2.17-3.14,3.91-5.44,5.21-2.3,1.3-4.71,1.96-7.24,1.96Zm1.26-3.78c1.37,0,2.69-.24,3.95-.73,1.26-.49,2.42-1.14,3.48-1.96,1.06-.82,1.95-1.74,2.66-2.75.71-1.02,1.15-2.06,1.33-3.12v-10.69c-.66-1.68-1.62-3.17-2.85-4.48-1.24-1.3-2.65-2.32-4.22-3.05-1.57-.73-3.2-1.1-4.88-1.1-1.95,0-3.68.41-5.21,1.23-1.53.82-2.81,1.9-3.85,3.25s-1.85,2.87-2.42,4.55c-.58,1.68-.86,3.36-.86,5.04,0,1.86.33,3.62,1,5.28.66,1.66,1.58,3.14,2.75,4.45,1.17,1.31,2.54,2.31,4.12,3.02,1.57.71,3.24,1.06,5.01,1.06Z" style="fill:#00437e; stroke-width:0px;"/><path d="m2040.72,297.41c-2.48,0-4.78-.47-6.9-1.42s-3.96-2.25-5.51-3.9c-1.55-1.65-2.75-3.56-3.62-5.72-.86-2.16-1.29-4.48-1.29-6.94,0-3.21.74-6.15,2.22-8.83,1.48-2.68,3.53-4.82,6.14-6.42,2.61-1.6,5.58-2.41,8.89-2.41s6.38.81,8.93,2.44c2.54,1.63,4.55,3.77,6.01,6.43s2.19,5.57,2.19,8.74v1.02c0,.33-.02.58-.07.76h-29.6c.22,2.47.92,4.66,2.09,6.57,1.17,1.92,2.7,3.43,4.58,4.56,1.88,1.12,3.93,1.68,6.14,1.68s4.39-.57,6.41-1.73c2.01-1.15,3.42-2.66,4.21-4.51l3.92,1.06c-.71,1.64-1.79,3.12-3.25,4.45-1.46,1.33-3.18,2.36-5.14,3.09-1.97.73-4.08,1.1-6.34,1.1Zm-12.74-19.52h25.56c-.18-2.5-.85-4.68-2.02-6.57-1.17-1.88-2.7-3.36-4.58-4.43-1.88-1.07-3.95-1.61-6.21-1.61s-4.31.54-6.17,1.61c-1.86,1.07-3.38,2.56-4.55,4.47-1.17,1.91-1.85,4.08-2.02,6.54Z" style="fill:#00437e; stroke-width:0px;"/><path d="m875.87,372.64v-47.13h4.65v47.13h-4.65Z" style="fill:#0072cf; stroke-width:0px;"/><path d="m919.01,372.64h-4.51v-19.19c0-4.04-.6-7-1.79-8.87-1.19-1.87-3.08-2.8-5.64-2.8-1.77,0-3.52.43-5.24,1.28-1.73.86-3.24,2.02-4.55,3.49-1.31,1.47-2.25,3.15-2.82,5.04v21.05h-4.51v-34.45h4.12v7.85c.93-1.67,2.15-3.13,3.65-4.39,1.5-1.25,3.21-2.23,5.11-2.94,1.9-.7,3.87-1.06,5.91-1.06,1.9,0,3.52.35,4.85,1.06,1.33.7,2.39,1.71,3.19,3,.8,1.3,1.37,2.86,1.73,4.69.35,1.83.53,3.86.53,6.1v20.13Z" style="fill:#0072cf; stroke-width:0px;"/><path d="m943.44,371.25c-.36.13-.91.38-1.66.73-.75.35-1.66.66-2.72.93-1.06.27-2.21.4-3.45.4s-2.49-.24-3.62-.73c-1.13-.49-2.02-1.23-2.69-2.23s-1-2.23-1-3.7v-24.86h-4.78v-3.58h4.78v-11.68h4.51v11.68h7.97v3.58h-7.97v23.61c.09,1.24.54,2.18,1.36,2.8.82.62,1.76.93,2.82.93,1.24,0,2.37-.21,3.39-.63,1.02-.42,1.64-.72,1.86-.9l1.2,3.65Z" style="fill:#0072cf; stroke-width:0px;"/><path d="m961.69,373.3c-2.48,0-4.78-.47-6.9-1.42-2.12-.95-3.96-2.25-5.51-3.9-1.55-1.65-2.75-3.56-3.62-5.72-.86-2.16-1.29-4.48-1.29-6.95,0-3.21.74-6.15,2.22-8.83,1.48-2.68,3.53-4.82,6.14-6.42,2.61-1.6,5.58-2.41,8.89-2.41s6.38.81,8.93,2.44c2.54,1.63,4.55,3.77,6.01,6.43,1.46,2.66,2.19,5.57,2.19,8.74v1.02c0,.33-.02.58-.07.76h-29.6c.22,2.47.92,4.66,2.09,6.57,1.17,1.91,2.7,3.43,4.58,4.56,1.88,1.12,3.93,1.68,6.14,1.68s4.39-.57,6.41-1.73c2.01-1.15,3.42-2.66,4.21-4.51l3.92,1.06c-.71,1.64-1.79,3.12-3.25,4.45-1.46,1.33-3.18,2.36-5.14,3.09-1.97.73-4.08,1.09-6.34,1.09Zm-12.74-19.51h25.56c-.18-2.5-.85-4.68-2.02-6.57-1.17-1.88-2.7-3.36-4.58-4.43-1.88-1.07-3.95-1.61-6.21-1.61s-4.31.54-6.17,1.61c-1.86,1.07-3.38,2.56-4.55,4.47-1.17,1.91-1.85,4.08-2.02,6.54Z" style="fill:#0072cf; stroke-width:0px;"/><path d="m1001.52,342.04c-3.01.09-5.65.93-7.93,2.52-2.28,1.59-3.88,3.78-4.81,6.57v21.51h-4.51v-34.45h4.25v8.16c1.19-2.43,2.78-4.4,4.75-5.91,1.97-1.5,4.06-2.35,6.27-2.52.44-.04.83-.07,1.16-.07s.61.02.83.07v4.12Z" style="fill:#0072cf; stroke-width:0px;"/><path d="m1035.17,372.64h-4.51v-19.19c0-4.04-.6-7-1.79-8.87-1.19-1.87-3.08-2.8-5.64-2.8-1.77,0-3.52.43-5.24,1.28-1.73.86-3.24,2.02-4.55,3.49-1.31,1.47-2.25,3.15-2.82,5.04v21.05h-4.51v-34.45h4.12v7.85c.93-1.67,2.15-3.13,3.65-4.39,1.5-1.25,3.21-2.23,5.11-2.94,1.9-.7,3.87-1.06,5.91-1.06,1.9,0,3.52.35,4.85,1.06,1.33.7,2.39,1.71,3.19,3,.8,1.3,1.37,2.86,1.73,4.69.35,1.83.53,3.86.53,6.1v20.13Z" style="fill:#0072cf; stroke-width:0px;"/><path d="m1040.55,362.75c0-2.15.62-4.01,1.86-5.57,1.24-1.56,2.95-2.77,5.14-3.63,2.19-.86,4.72-1.29,7.6-1.29,1.68,0,3.43.13,5.24.4s3.43.66,4.85,1.2v-2.91c0-2.9-.86-5.21-2.59-6.93-1.73-1.71-4.12-2.57-7.17-2.57-1.86,0-3.68.34-5.48,1.03-1.79.69-3.66,1.69-5.61,3.02l-1.73-3.19c2.26-1.55,4.47-2.71,6.64-3.49,2.17-.77,4.38-1.16,6.64-1.16,4.25,0,7.61,1.21,10.09,3.63,2.48,2.42,3.72,5.76,3.72,10.03v15.9c0,.62.13,1.07.4,1.35.27.29.69.45,1.26.49v3.58c-.49.04-.91.09-1.26.13-.35.04-.62.04-.8,0-1.11-.04-1.95-.4-2.52-1.06-.58-.66-.89-1.37-.93-2.12l-.07-2.52c-1.55,1.99-3.56,3.53-6.04,4.61-2.48,1.08-5,1.63-7.57,1.63-2.21,0-4.21-.47-6.01-1.42-1.79-.95-3.19-2.22-4.18-3.83-1-1.6-1.49-3.38-1.49-5.31Zm23.17,2.63c.49-.61.86-1.21,1.13-1.78.26-.57.4-1.07.4-1.51v-5c-1.5-.57-3.06-1.01-4.68-1.31-1.62-.31-3.24-.46-4.88-.46-3.23,0-5.84.64-7.83,1.91s-2.99,3-2.99,5.2c0,1.27.33,2.47,1,3.59.66,1.12,1.64,2.04,2.92,2.76s2.79,1.08,4.51,1.08c2.17,0,4.19-.42,6.07-1.25,1.88-.83,3.33-1.91,4.35-3.22Z" style="fill:#0072cf; stroke-width:0px;"/><path d="m1094.38,371.25c-.36.13-.91.38-1.66.73-.75.35-1.66.66-2.72.93-1.06.27-2.21.4-3.45.4s-2.49-.24-3.62-.73c-1.13-.49-2.02-1.23-2.69-2.23s-1-2.23-1-3.7v-24.86h-4.78v-3.58h4.78v-11.68h4.51v11.68h7.97v3.58h-7.97v23.61c.09,1.24.54,2.18,1.36,2.8.82.62,1.76.93,2.82.93,1.24,0,2.37-.21,3.39-.63,1.02-.42,1.64-.72,1.86-.9l1.2,3.65Z" style="fill:#0072cf; stroke-width:0px;"/><path d="m1098.56,330.82v-6.64h4.51v6.64h-4.51Zm0,41.82v-34.58h4.51v34.58h-4.51Z" style="fill:#0072cf; stroke-width:0px;"/><path d="m1126.38,373.3c-2.52,0-4.83-.47-6.94-1.42-2.1-.95-3.92-2.25-5.44-3.89-1.53-1.65-2.71-3.54-3.55-5.68s-1.26-4.39-1.26-6.77.42-4.76,1.26-6.9c.84-2.13,2.04-4.03,3.58-5.68,1.55-1.65,3.37-2.95,5.48-3.89,2.1-.95,4.39-1.42,6.87-1.42s4.76.47,6.84,1.42c2.08.95,3.89,2.24,5.44,3.89,1.55,1.65,2.74,3.54,3.58,5.68.84,2.13,1.26,4.43,1.26,6.9s-.42,4.63-1.26,6.77c-.84,2.13-2.03,4.03-3.55,5.68-1.53,1.65-3.34,2.95-5.44,3.89-2.1.94-4.39,1.42-6.87,1.42Zm-12.61-17.69c0,2.55.56,4.87,1.69,6.95,1.13,2.09,2.64,3.73,4.55,4.94,1.9,1.21,4,1.81,6.31,1.81s4.4-.62,6.31-1.84c1.9-1.23,3.43-2.91,4.58-5.04,1.15-2.13,1.73-4.47,1.73-7.02s-.58-4.81-1.73-6.92c-1.15-2.11-2.68-3.78-4.58-5.01-1.9-1.23-4.01-1.85-6.31-1.85s-4.4.64-6.31,1.91c-1.9,1.27-3.42,2.95-4.55,5.04-1.13,2.09-1.69,4.43-1.69,7.02Z" style="fill:#0072cf; stroke-width:0px;"/><path d="m1178.68,372.64h-4.51v-19.19c0-4.04-.6-7-1.79-8.87-1.19-1.87-3.08-2.8-5.64-2.8-1.77,0-3.52.43-5.24,1.28-1.73.86-3.24,2.02-4.55,3.49-1.31,1.47-2.25,3.15-2.82,5.04v21.05h-4.51v-34.45h4.12v7.85c.93-1.67,2.15-3.13,3.65-4.39,1.5-1.25,3.21-2.23,5.11-2.94,1.9-.7,3.87-1.06,5.91-1.06,1.9,0,3.52.35,4.85,1.06,1.33.7,2.39,1.71,3.19,3,.8,1.3,1.37,2.86,1.73,4.69.35,1.83.53,3.86.53,6.1v20.13Z" style="fill:#0072cf; stroke-width:0px;"/><path d="m1184.06,362.75c0-2.15.62-4.01,1.86-5.57,1.24-1.56,2.95-2.77,5.14-3.63,2.19-.86,4.72-1.29,7.6-1.29,1.68,0,3.43.13,5.24.4s3.43.66,4.85,1.2v-2.91c0-2.9-.86-5.21-2.59-6.93-1.73-1.71-4.12-2.57-7.17-2.57-1.86,0-3.68.34-5.48,1.03-1.79.69-3.66,1.69-5.61,3.02l-1.73-3.19c2.26-1.55,4.47-2.71,6.64-3.49,2.17-.77,4.38-1.16,6.64-1.16,4.25,0,7.61,1.21,10.09,3.63,2.48,2.42,3.72,5.76,3.72,10.03v15.9c0,.62.13,1.07.4,1.35.27.29.69.45,1.26.49v3.58c-.49.04-.91.09-1.26.13-.35.04-.62.04-.8,0-1.11-.04-1.95-.4-2.52-1.06-.58-.66-.89-1.37-.93-2.12l-.07-2.52c-1.55,1.99-3.56,3.53-6.04,4.61-2.48,1.08-5,1.63-7.57,1.63-2.21,0-4.21-.47-6.01-1.42-1.79-.95-3.19-2.22-4.18-3.83-1-1.6-1.49-3.38-1.49-5.31Zm23.17,2.63c.49-.61.86-1.21,1.13-1.78.26-.57.4-1.07.4-1.51v-5c-1.5-.57-3.06-1.01-4.68-1.31-1.62-.31-3.24-.46-4.88-.46-3.23,0-5.84.64-7.83,1.91s-2.99,3-2.99,5.2c0,1.27.33,2.47,1,3.59.66,1.12,1.64,2.04,2.92,2.76s2.79,1.08,4.51,1.08c2.17,0,4.19-.42,6.07-1.25,1.88-.83,3.33-1.91,4.35-3.22Z" style="fill:#0072cf; stroke-width:0px;"/><path d="m1221.76,324.18h4.51v40.86c0,1.74.31,2.87.93,3.41.62.53,1.37.8,2.26.8.8,0,1.59-.09,2.39-.27.8-.18,1.48-.35,2.06-.53l.8,3.65c-.84.35-1.87.64-3.09.86-1.22.22-2.27.33-3.15.33-2.04,0-3.66-.6-4.88-1.8-1.22-1.2-1.83-2.85-1.83-4.94v-42.38Z" style="fill:#0072cf; stroke-width:0px;"/><path d="m1253.09,373.3c-2.48,0-4.78-.47-6.9-1.42-2.12-.95-3.96-2.25-5.51-3.9-1.55-1.65-2.75-3.56-3.62-5.72-.86-2.16-1.29-4.48-1.29-6.95,0-3.21.74-6.15,2.22-8.83,1.48-2.68,3.53-4.82,6.14-6.42,2.61-1.6,5.58-2.41,8.89-2.41s6.38.81,8.93,2.44c2.54,1.63,4.55,3.77,6.01,6.43,1.46,2.66,2.19,5.57,2.19,8.74v1.02c0,.33-.02.58-.07.76h-29.6c.22,2.47.92,4.66,2.09,6.57,1.17,1.91,2.7,3.43,4.58,4.56,1.88,1.12,3.93,1.68,6.14,1.68s4.39-.57,6.41-1.73c2.01-1.15,3.42-2.66,4.21-4.51l3.92,1.06c-.71,1.64-1.79,3.12-3.25,4.45-1.46,1.33-3.18,2.36-5.14,3.09-1.97.73-4.08,1.09-6.34,1.09Zm-12.74-19.51h25.56c-.18-2.5-.85-4.68-2.02-6.57-1.17-1.88-2.7-3.36-4.58-4.43-1.88-1.07-3.95-1.61-6.21-1.61s-4.31.54-6.17,1.61c-1.86,1.07-3.38,2.56-4.55,4.47-1.17,1.91-1.85,4.08-2.02,6.54Z" style="fill:#0072cf; stroke-width:0px;"/><path d="m1327.5,360.49c0,2.35-.6,4.44-1.79,6.27-1.2,1.84-2.8,3.28-4.81,4.31-2.01,1.04-4.21,1.56-6.6,1.56h-22.24v-47.13h22.7c2.21,0,4.12.59,5.74,1.76,1.62,1.17,2.85,2.68,3.72,4.51.86,1.84,1.29,3.75,1.29,5.74,0,2.35-.6,4.51-1.79,6.5-1.2,1.99-2.85,3.47-4.98,4.45,2.7.8,4.83,2.28,6.41,4.45,1.57,2.17,2.36,4.69,2.36,7.57Zm-30.8-30.93v17.39h16.2c1.55,0,2.92-.41,4.12-1.23,1.19-.82,2.15-1.89,2.85-3.22.71-1.33,1.06-2.74,1.06-4.25,0-1.59-.33-3.04-1-4.35-.66-1.3-1.57-2.36-2.72-3.15-1.15-.8-2.46-1.2-3.92-1.2h-16.59Zm26.15,30.14c0-1.59-.35-3.06-1.06-4.41-.71-1.35-1.67-2.44-2.89-3.29-1.22-.84-2.6-1.26-4.15-1.26h-18.06v17.86h17.59c1.59,0,3.03-.42,4.31-1.26,1.28-.84,2.31-1.94,3.09-3.29.77-1.35,1.16-2.8,1.16-4.35Z" style="fill:#0072cf; stroke-width:0px;"/><path d="m1348.81,373.3c-2.48,0-4.78-.47-6.9-1.42-2.12-.95-3.96-2.25-5.51-3.9-1.55-1.65-2.75-3.56-3.62-5.72-.86-2.16-1.29-4.48-1.29-6.95,0-3.21.74-6.15,2.22-8.83,1.48-2.68,3.53-4.82,6.14-6.42,2.61-1.6,5.58-2.41,8.89-2.41s6.38.81,8.93,2.44c2.54,1.63,4.55,3.77,6.01,6.43,1.46,2.66,2.19,5.57,2.19,8.74v1.02c0,.33-.02.58-.07.76h-29.6c.22,2.47.92,4.66,2.09,6.57,1.17,1.91,2.7,3.43,4.58,4.56,1.88,1.12,3.93,1.68,6.14,1.68s4.39-.57,6.41-1.73c2.01-1.15,3.42-2.66,4.21-4.51l3.92,1.06c-.71,1.64-1.79,3.12-3.25,4.45-1.46,1.33-3.18,2.36-5.14,3.09-1.97.73-4.08,1.09-6.34,1.09Zm-12.74-19.51h25.56c-.18-2.5-.85-4.68-2.02-6.57-1.17-1.88-2.7-3.36-4.58-4.43-1.88-1.07-3.95-1.61-6.21-1.61s-4.31.54-6.17,1.61c-1.86,1.07-3.38,2.56-4.55,4.47-1.17,1.91-1.85,4.08-2.02,6.54Z" style="fill:#0072cf; stroke-width:0px;"/><path d="m1371.57,324.18h4.51v40.86c0,1.74.31,2.87.93,3.41.62.53,1.37.8,2.26.8.8,0,1.59-.09,2.39-.27.8-.18,1.48-.35,2.06-.53l.8,3.65c-.84.35-1.87.64-3.09.86-1.22.22-2.27.33-3.15.33-2.04,0-3.66-.6-4.88-1.8-1.22-1.2-1.83-2.85-1.83-4.94v-42.38Z" style="fill:#0072cf; stroke-width:0px;"/><path d="m1402.9,373.3c-2.48,0-4.78-.47-6.9-1.42-2.12-.95-3.96-2.25-5.51-3.9-1.55-1.65-2.75-3.56-3.62-5.72-.86-2.16-1.29-4.48-1.29-6.95,0-3.21.74-6.15,2.22-8.83,1.48-2.68,3.53-4.82,6.14-6.42,2.61-1.6,5.58-2.41,8.89-2.41s6.38.81,8.93,2.44c2.54,1.63,4.55,3.77,6.01,6.43,1.46,2.66,2.19,5.57,2.19,8.74v1.02c0,.33-.02.58-.07.76h-29.6c.22,2.47.92,4.66,2.09,6.57,1.17,1.91,2.7,3.43,4.58,4.56,1.88,1.12,3.93,1.68,6.14,1.68s4.39-.57,6.41-1.73c2.01-1.15,3.42-2.66,4.21-4.51l3.92,1.06c-.71,1.64-1.79,3.12-3.25,4.45-1.46,1.33-3.18,2.36-5.14,3.09-1.97.73-4.08,1.09-6.34,1.09Zm-12.74-19.51h25.56c-.18-2.5-.85-4.68-2.02-6.57-1.17-1.88-2.7-3.36-4.58-4.43-1.88-1.07-3.95-1.61-6.21-1.61s-4.31.54-6.17,1.61c-1.86,1.07-3.38,2.56-4.55,4.47-1.17,1.91-1.85,4.08-2.02,6.54Z" style="fill:#0072cf; stroke-width:0px;"/><path d="m1425.14,358.42v-20.23h4.51v19.43c0,3.92.67,6.85,2.02,8.79,1.35,1.94,3.35,2.91,6.01,2.91,1.77,0,3.48-.38,5.14-1.16,1.66-.77,3.13-1.87,4.41-3.3s2.26-3.09,2.92-4.99v-21.69h4.51v29.02c0,.62.13,1.07.4,1.35s.66.45,1.2.5v3.58c-.53.04-.95.08-1.26.1-.31.02-.6.03-.86.03-.89-.09-1.65-.44-2.29-1.06s-.98-1.37-1.03-2.25l-.13-4.63c-1.5,2.64-3.55,4.72-6.14,6.22-2.59,1.5-5.39,2.25-8.4,2.25-3.63,0-6.37-1.26-8.23-3.77s-2.79-6.22-2.79-11.11Z" style="fill:#0072cf; stroke-width:0px;"/><path d="m1478.44,373.3c-2.52,0-4.83-.47-6.94-1.42-2.1-.95-3.94-2.26-5.51-3.93-1.57-1.67-2.79-3.59-3.65-5.74-.86-2.16-1.29-4.44-1.29-6.87,0-3.26.73-6.23,2.19-8.91,1.46-2.68,3.5-4.82,6.11-6.4,2.61-1.58,5.62-2.38,9.03-2.38,3.23,0,6.08.74,8.56,2.22,2.48,1.48,4.31,3.48,5.51,6.01l-4.38,1.39c-.97-1.77-2.33-3.15-4.08-4.15-1.75-1-3.68-1.49-5.81-1.49-2.3,0-4.4.59-6.31,1.78-1.9,1.19-3.42,2.81-4.55,4.88-1.13,2.07-1.69,4.42-1.69,7.05s.57,4.94,1.73,7.05c1.15,2.11,2.68,3.79,4.58,5.04,1.9,1.25,4,1.88,6.31,1.88,1.5,0,2.95-.27,4.35-.8,1.39-.53,2.61-1.25,3.65-2.16,1.04-.91,1.74-1.89,2.09-2.95l4.45,1.33c-.62,1.64-1.65,3.11-3.09,4.41-1.44,1.31-3.12,2.32-5.04,3.05s-3.99,1.09-6.21,1.09Z" style="fill:#0072cf; stroke-width:0px;"/><path d="m1527.49,372.64h-4.51v-19.19c0-3.87-.69-6.78-2.06-8.74-1.37-1.96-3.34-2.94-5.91-2.94-1.68,0-3.35.43-5.01,1.28-1.66.86-3.12,2.02-4.38,3.49-1.26,1.47-2.16,3.15-2.69,5.04v21.05h-4.51v-48.46h4.51v21.86c1.37-2.55,3.29-4.59,5.74-6.1s5.08-2.28,7.87-2.28c1.99,0,3.68.35,5.08,1.06,1.39.7,2.52,1.73,3.38,3.07.86,1.34,1.49,2.9,1.89,4.69.4,1.78.6,3.79.6,6.04v20.13Z" style="fill:#0072cf; stroke-width:0px;"/><path d="m1551.92,371.25c-.36.13-.91.38-1.66.73-.75.35-1.66.66-2.72.93-1.06.27-2.21.4-3.45.4s-2.49-.24-3.62-.73c-1.13-.49-2.02-1.23-2.69-2.23s-1-2.23-1-3.7v-24.86h-4.78v-3.58h4.78v-11.68h4.51v11.68h7.97v3.58h-7.97v23.61c.09,1.24.54,2.18,1.36,2.8.82.62,1.76.93,2.82.93,1.24,0,2.37-.21,3.39-.63,1.02-.42,1.64-.72,1.86-.9l1.2,3.65Z" style="fill:#0072cf; stroke-width:0px;"/><path d="m1555.77,358.42v-20.23h4.51v19.43c0,3.92.67,6.85,2.02,8.79,1.35,1.94,3.35,2.91,6.01,2.91,1.77,0,3.48-.38,5.14-1.16,1.66-.77,3.13-1.87,4.41-3.3s2.26-3.09,2.92-4.99v-21.69h4.51v29.02c0,.62.13,1.07.4,1.35s.66.45,1.2.5v3.58c-.53.04-.95.08-1.26.1-.31.02-.6.03-.86.03-.89-.09-1.65-.44-2.29-1.06s-.98-1.37-1.03-2.25l-.13-4.63c-1.5,2.64-3.55,4.72-6.14,6.22-2.59,1.5-5.39,2.25-8.4,2.25-3.63,0-6.37-1.26-8.23-3.77s-2.79-6.22-2.79-11.11Z" style="fill:#0072cf; stroke-width:0px;"/><path d="m1623.14,372.64h-4.51v-19.19c0-4.04-.6-7-1.79-8.87-1.19-1.87-3.08-2.8-5.64-2.8-1.77,0-3.52.43-5.24,1.28-1.73.86-3.24,2.02-4.55,3.49-1.31,1.47-2.25,3.15-2.82,5.04v21.05h-4.51v-34.45h4.12v7.85c.93-1.67,2.15-3.13,3.65-4.39,1.5-1.25,3.21-2.23,5.11-2.94,1.9-.7,3.87-1.06,5.91-1.06,1.9,0,3.52.35,4.85,1.06,1.33.7,2.39,1.71,3.19,3,.8,1.3,1.37,2.86,1.73,4.69.35,1.83.53,3.86.53,6.1v20.13Z" style="fill:#0072cf; stroke-width:0px;"/><path d="m1645.18,373.3c-2.35,0-4.51-.49-6.5-1.46s-3.71-2.29-5.14-3.95c-1.44-1.66-2.56-3.55-3.35-5.68-.8-2.12-1.19-4.31-1.19-6.57,0-2.43.39-4.72,1.16-6.87.77-2.15,1.88-4.06,3.32-5.74,1.44-1.68,3.13-3,5.08-3.95,1.95-.95,4.12-1.43,6.5-1.43,2.96,0,5.54.74,7.73,2.22,2.19,1.48,4.04,3.33,5.54,5.54v-7.24h4.05v34.62c0,3.18-.76,5.86-2.29,8.04-1.53,2.18-3.58,3.83-6.17,4.93-2.59,1.1-5.41,1.65-8.46,1.65-3.94,0-7.13-.71-9.56-2.12-2.43-1.42-4.43-3.32-5.97-5.71l2.79-2.19c1.37,2.17,3.2,3.78,5.48,4.85,2.28,1.06,4.7,1.59,7.27,1.59,2.26,0,4.32-.4,6.21-1.21,1.88-.8,3.39-2.01,4.51-3.62,1.13-1.61,1.69-3.63,1.69-6.06v-6.84c-1.33,2.17-3.14,3.91-5.44,5.21-2.3,1.3-4.71,1.96-7.24,1.96Zm1.26-3.78c1.37,0,2.69-.24,3.95-.73,1.26-.49,2.42-1.14,3.48-1.96,1.06-.82,1.95-1.74,2.66-2.75.71-1.02,1.15-2.06,1.33-3.12v-10.69c-.66-1.68-1.62-3.17-2.85-4.48-1.24-1.3-2.65-2.32-4.22-3.05-1.57-.73-3.2-1.1-4.88-1.1-1.95,0-3.68.41-5.21,1.23-1.53.82-2.81,1.9-3.85,3.25-1.04,1.35-1.85,2.87-2.42,4.55-.58,1.68-.86,3.36-.86,5.04,0,1.86.33,3.62,1,5.28.66,1.66,1.58,3.14,2.75,4.45,1.17,1.31,2.54,2.31,4.12,3.02,1.57.71,3.24,1.06,5.01,1.06Z" style="fill:#0072cf; stroke-width:0px;"/><path d="m1682.22,373.3c-2.83,0-5.47-.46-7.9-1.39s-4.54-2.34-6.31-4.25l1.86-3.19c1.95,1.82,3.91,3.13,5.88,3.95,1.97.82,4.06,1.23,6.27,1.23,2.7,0,4.89-.54,6.57-1.61,1.68-1.08,2.52-2.62,2.52-4.64,0-1.36-.41-2.41-1.23-3.14-.82-.73-1.99-1.32-3.52-1.78s-3.35-.96-5.48-1.49c-2.39-.66-4.39-1.35-6.01-2.08-1.62-.73-2.83-1.65-3.65-2.77-.82-1.12-1.23-2.58-1.23-4.39,0-2.24.56-4.1,1.69-5.58,1.13-1.47,2.68-2.6,4.65-3.37,1.97-.77,4.17-1.16,6.61-1.16,2.65,0,5,.42,7.04,1.26,2.03.84,3.69,2.01,4.98,3.52l-2.19,3.05c-1.24-1.42-2.71-2.47-4.41-3.15-1.7-.69-3.6-1.03-5.67-1.03-1.42,0-2.77.19-4.05.56s-2.33.99-3.15,1.85c-.82.86-1.23,2.03-1.23,3.53,0,1.23.31,2.19.93,2.87.62.68,1.55,1.25,2.79,1.72,1.24.46,2.76.96,4.58,1.48,2.61.7,4.89,1.42,6.84,2.14,1.95.73,3.45,1.66,4.51,2.8,1.06,1.14,1.59,2.75,1.59,4.81,0,3.21-1.22,5.72-3.65,7.52-2.43,1.8-5.64,2.7-9.62,2.7Z" style="fill:#0072cf; stroke-width:0px;"/><path d="m1726.16,372.64l-12.81-17.69-7.37,6.89v10.8h-4.51v-48.46h4.51v32.82l19.58-18.81h4.98l-14.14,14.11,14.67,20.34h-4.91Z" style="fill:#0072cf; stroke-width:0px;"/><path d="m1748.2,373.3c-2.52,0-4.83-.47-6.94-1.42-2.1-.95-3.92-2.25-5.44-3.89-1.53-1.65-2.71-3.54-3.55-5.68s-1.26-4.39-1.26-6.77.42-4.76,1.26-6.9c.84-2.13,2.04-4.03,3.58-5.68,1.55-1.65,3.37-2.95,5.48-3.89,2.1-.95,4.39-1.42,6.87-1.42s4.76.47,6.84,1.42c2.08.95,3.89,2.24,5.44,3.89,1.55,1.65,2.74,3.54,3.58,5.68.84,2.13,1.26,4.43,1.26,6.9s-.42,4.63-1.26,6.77c-.84,2.13-2.03,4.03-3.55,5.68-1.53,1.65-3.34,2.95-5.44,3.89-2.1.94-4.39,1.42-6.87,1.42Zm-12.61-17.69c0,2.55.56,4.87,1.69,6.95,1.13,2.09,2.64,3.73,4.55,4.94,1.9,1.21,4,1.81,6.31,1.81s4.4-.62,6.31-1.84c1.9-1.23,3.43-2.91,4.58-5.04,1.15-2.13,1.73-4.47,1.73-7.02s-.58-4.81-1.73-6.92c-1.15-2.11-2.68-3.78-4.58-5.01-1.9-1.23-4.01-1.85-6.31-1.85s-4.4.64-6.31,1.91c-1.9,1.27-3.42,2.95-4.55,5.04-1.13,2.09-1.69,4.43-1.69,7.02Z" style="fill:#0072cf; stroke-width:0px;"/><path d="m1822.87,372.64h-4.51v-19.19c0-4-.64-6.95-1.93-8.84s-3.19-2.84-5.71-2.84-4.95.92-7,2.77-3.51,4.22-4.35,7.12v20.97h-4.51v-19.19c0-4.04-.62-7-1.86-8.87-1.24-1.87-3.14-2.8-5.71-2.8s-4.89.9-6.97,2.7c-2.08,1.8-3.54,4.17-4.38,7.11v21.05h-4.51v-34.45h4.12v7.85c1.46-2.68,3.33-4.75,5.61-6.2,2.28-1.45,4.81-2.18,7.6-2.18s5.2.81,6.97,2.44c1.77,1.63,2.85,3.76,3.25,6.4,1.59-2.9,3.51-5.1,5.74-6.6,2.23-1.5,4.77-2.24,7.6-2.24,1.95,0,3.59.35,4.95,1.06,1.35.7,2.43,1.71,3.25,3,.82,1.3,1.42,2.86,1.79,4.69.38,1.83.56,3.86.56,6.1v20.13Z" style="fill:#0072cf; stroke-width:0px;"/><path d="m1882.41,372.64h-4.51v-19.19c0-4-.64-6.95-1.93-8.84s-3.19-2.84-5.71-2.84-4.95.92-7,2.77-3.51,4.22-4.35,7.12v20.97h-4.51v-19.19c0-4.04-.62-7-1.86-8.87-1.24-1.87-3.14-2.8-5.71-2.8s-4.89.9-6.97,2.7c-2.08,1.8-3.54,4.17-4.38,7.11v21.05h-4.51v-34.45h4.12v7.85c1.46-2.68,3.33-4.75,5.61-6.2,2.28-1.45,4.81-2.18,7.6-2.18s5.2.81,6.97,2.44c1.77,1.63,2.85,3.76,3.25,6.4,1.59-2.9,3.51-5.1,5.74-6.6,2.23-1.5,4.77-2.24,7.6-2.24,1.95,0,3.59.35,4.95,1.06,1.35.7,2.43,1.71,3.25,3,.82,1.3,1.42,2.86,1.79,4.69.38,1.83.56,3.86.56,6.1v20.13Z" style="fill:#0072cf; stroke-width:0px;"/><path d="m1890.51,330.82v-6.64h4.51v6.64h-4.51Zm0,41.82v-34.58h4.51v34.58h-4.51Z" style="fill:#0072cf; stroke-width:0px;"/><path d="m1914.87,373.3c-2.83,0-5.47-.46-7.9-1.39s-4.54-2.34-6.31-4.25l1.86-3.19c1.95,1.82,3.91,3.13,5.88,3.95,1.97.82,4.06,1.23,6.27,1.23,2.7,0,4.89-.54,6.57-1.61,1.68-1.08,2.52-2.62,2.52-4.64,0-1.36-.41-2.41-1.23-3.14-.82-.73-1.99-1.32-3.52-1.78s-3.35-.96-5.48-1.49c-2.39-.66-4.39-1.35-6.01-2.08-1.62-.73-2.83-1.65-3.65-2.77-.82-1.12-1.23-2.58-1.23-4.39,0-2.24.56-4.1,1.69-5.58,1.13-1.47,2.68-2.6,4.65-3.37,1.97-.77,4.17-1.16,6.61-1.16,2.65,0,5,.42,7.04,1.26,2.03.84,3.69,2.01,4.98,3.52l-2.19,3.05c-1.24-1.42-2.71-2.47-4.41-3.15-1.7-.69-3.6-1.03-5.67-1.03-1.42,0-2.77.19-4.05.56s-2.33.99-3.15,1.85c-.82.86-1.23,2.03-1.23,3.53,0,1.23.31,2.19.93,2.87.62.68,1.55,1.25,2.79,1.72,1.24.46,2.76.96,4.58,1.48,2.61.7,4.89,1.42,6.84,2.14,1.95.73,3.45,1.66,4.51,2.8,1.06,1.14,1.59,2.75,1.59,4.81,0,3.21-1.22,5.72-3.65,7.52-2.43,1.8-5.64,2.7-9.62,2.7Z" style="fill:#0072cf; stroke-width:0px;"/><path d="m1945.47,373.3c-2.83,0-5.47-.46-7.9-1.39s-4.54-2.34-6.31-4.25l1.86-3.19c1.95,1.82,3.91,3.13,5.88,3.95,1.97.82,4.06,1.23,6.27,1.23,2.7,0,4.89-.54,6.57-1.61,1.68-1.08,2.52-2.62,2.52-4.64,0-1.36-.41-2.41-1.23-3.14-.82-.73-1.99-1.32-3.52-1.78s-3.35-.96-5.48-1.49c-2.39-.66-4.39-1.35-6.01-2.08-1.62-.73-2.83-1.65-3.65-2.77-.82-1.12-1.23-2.58-1.23-4.39,0-2.24.56-4.1,1.69-5.58,1.13-1.47,2.68-2.6,4.65-3.37,1.97-.77,4.17-1.16,6.61-1.16,2.65,0,5,.42,7.04,1.26,2.03.84,3.69,2.01,4.98,3.52l-2.19,3.05c-1.24-1.42-2.71-2.47-4.41-3.15-1.7-.69-3.6-1.03-5.67-1.03-1.42,0-2.77.19-4.05.56s-2.33.99-3.15,1.85c-.82.86-1.23,2.03-1.23,3.53,0,1.23.31,2.19.93,2.87.62.68,1.55,1.25,2.79,1.72,1.24.46,2.76.96,4.58,1.48,2.61.7,4.89,1.42,6.84,2.14,1.95.73,3.45,1.66,4.51,2.8,1.06,1.14,1.59,2.75,1.59,4.81,0,3.21-1.22,5.72-3.65,7.52-2.43,1.8-5.64,2.7-9.62,2.7Z" style="fill:#0072cf; stroke-width:0px;"/><path d="m1964.72,330.82v-6.64h4.51v6.64h-4.51Zm0,41.82v-34.58h4.51v34.58h-4.51Z" style="fill:#0072cf; stroke-width:0px;"/><path d="m1992.53,373.3c-2.52,0-4.83-.47-6.94-1.42-2.1-.95-3.92-2.25-5.44-3.89-1.53-1.65-2.71-3.54-3.55-5.68s-1.26-4.39-1.26-6.77.42-4.76,1.26-6.9c.84-2.13,2.04-4.03,3.58-5.68,1.55-1.65,3.37-2.95,5.48-3.89,2.1-.95,4.39-1.42,6.87-1.42s4.76.47,6.84,1.42c2.08.95,3.89,2.24,5.44,3.89,1.55,1.65,2.74,3.54,3.58,5.68.84,2.13,1.26,4.43,1.26,6.9s-.42,4.63-1.26,6.77c-.84,2.13-2.03,4.03-3.55,5.68-1.53,1.65-3.34,2.95-5.44,3.89-2.1.94-4.39,1.42-6.87,1.42Zm-12.61-17.69c0,2.55.56,4.87,1.69,6.95,1.13,2.09,2.64,3.73,4.55,4.94,1.9,1.21,4,1.81,6.31,1.81s4.4-.62,6.31-1.84c1.9-1.23,3.43-2.91,4.58-5.04,1.15-2.13,1.73-4.47,1.73-7.02s-.58-4.81-1.73-6.92c-1.15-2.11-2.68-3.78-4.58-5.01-1.9-1.23-4.01-1.85-6.31-1.85s-4.4.64-6.31,1.91c-1.9,1.27-3.42,2.95-4.55,5.04-1.13,2.09-1.69,4.43-1.69,7.02Z" style="fill:#0072cf; stroke-width:0px;"/><path d="m2044.84,372.64h-4.51v-19.19c0-4.04-.6-7-1.79-8.87-1.19-1.87-3.08-2.8-5.64-2.8-1.77,0-3.52.43-5.24,1.28-1.73.86-3.24,2.02-4.55,3.49-1.31,1.47-2.25,3.15-2.82,5.04v21.05h-4.51v-34.45h4.12v7.85c.93-1.67,2.15-3.13,3.65-4.39,1.5-1.25,3.21-2.23,5.11-2.94,1.9-.7,3.87-1.06,5.91-1.06,1.9,0,3.52.35,4.85,1.06,1.33.7,2.39,1.71,3.19,3,.8,1.3,1.37,2.86,1.73,4.69.35,1.83.53,3.86.53,6.1v20.13Z" style="fill:#0072cf; stroke-width:0px;"/></svg>